<svg xmlns="http://www.w3.org/2000/svg" width="1184" height="864" viewBox="0 0 1184 864">
<g>
<path d="M 635.00 671.49 C621.73,673.40 593.55,674.15 580.50,672.96 C519.98,667.40 464.91,641.12 424.01,598.28 C387.00,559.53 365.61,514.30 358.87,460.50 C357.24,447.48 357.24,415.09 358.88,403.00 C367.64,338.37 400.52,281.19 451.15,242.61 C483.15,218.21 524.44,200.79 563.98,195.01 C669.94,179.50 773.24,233.16 819.03,327.50 C836.09,362.64 843.33,394.31 843.25,433.50 C843.19,460.53 839.66,482.85 831.53,507.50 C802.85,594.54 726.37,658.36 635.00,671.49 ZM 539.94 542.25 C540.61,544.31 541.53,546.00 541.98,546.00 C542.44,546.00 544.01,543.95 545.47,541.45 C546.94,538.95 550.11,534.49 552.52,531.52 L 556.91 526.14 L 552.21 523.41 C534.12,512.91 520.09,494.96 518.32,480.09 C517.90,476.54 517.18,474.65 516.10,474.30 C497.62,468.21 485.04,453.82 482.01,435.29 C479.57,420.38 484.82,404.19 495.31,394.26 L 500.69 389.18 L 498.64 377.85 L 492.96 378.50 C488.09,379.07 487.18,378.91 486.60,377.40 C485.57,374.71 487.74,373.48 496.84,371.59 C525.34,365.69 557.52,348.01 586.70,322.21 C591.91,317.60 594.53,315.94 596.20,316.17 C598.28,316.47 598.49,316.99 598.37,321.70 C598.14,330.52 592.01,341.74 581.08,353.37 L 576.50 358.25 L 582.14 357.71 C589.59,356.99 599.89,352.57 609.61,345.90 C619.00,339.46 635.65,323.18 642.52,313.71 C646.63,308.04 647.87,306.96 649.98,307.21 C652.39,307.49 652.53,307.87 653.20,315.99 C654.85,335.93 660.81,350.97 670.60,359.92 C673.66,362.72 677.22,365.27 678.51,365.59 C681.50,366.34 682.51,368.92 680.58,370.85 C679.25,372.17 678.60,372.13 674.80,370.42 C668.31,367.51 660.05,358.64 655.78,349.99 C652.01,342.35 648.02,328.11 648.01,322.25 C648.00,320.46 647.73,319.00 647.40,319.00 C647.06,319.00 641.65,324.37 635.36,330.93 C629.08,337.49 620.91,345.09 617.22,347.82 C602.51,358.69 587.69,364.58 576.98,363.80 C571.07,363.38 567.00,361.18 567.00,358.41 C567.00,357.71 569.59,355.08 572.75,352.57 C575.91,350.06 579.94,346.27 581.70,344.13 C585.31,339.76 592.57,327.00 591.45,327.00 C591.05,327.00 587.75,329.41 584.11,332.36 C560.23,351.71 534.64,366.56 513.77,373.17 C504.66,376.06 504.06,376.41 504.51,378.63 C505.60,383.90 505.89,385.53 506.67,385.80 C507.01,385.92 507.44,385.79 508.08,385.58 C508.15,385.56 508.22,385.54 508.30,385.51 C518.87,382.17 520.93,381.88 530.38,382.34 C539.18,382.77 541.06,383.22 547.51,386.41 C559.21,392.19 570.42,405.86 572.66,417.06 C573.18,419.65 573.63,420.05 575.39,419.51 C576.55,419.15 580.71,418.61 584.63,418.30 L 591.77 417.75 L 592.46 410.73 C594.74,387.55 610.89,370.18 632.96,367.16 C642.11,365.91 653.11,367.39 660.60,370.90 C669.99,375.29 679.11,384.38 683.75,393.95 C685.76,398.10 687.46,401.61 687.54,401.75 C687.71,402.08 706.89,393.44 707.63,392.70 C707.94,392.40 704.98,389.12 701.06,385.42 C695.32,380.01 693.06,376.93 689.45,369.60 C684.99,360.57 681.45,347.60 682.61,344.58 C683.33,342.70 686.90,342.46 687.43,344.25 C687.63,344.94 688.52,348.65 689.40,352.50 C691.37,361.15 696.64,372.06 701.65,377.91 C703.73,380.34 708.08,384.04 711.32,386.13 L 717.21 389.93 L 721.06 387.97 C723.19,386.89 725.78,386.00 726.84,386.00 C727.89,386.00 729.27,385.37 729.91,384.61 C730.54,383.84 733.38,382.22 736.21,381.00 C740.26,379.26 742.66,378.89 747.43,379.25 C750.77,379.50 754.22,380.02 755.11,380.41 C760.89,382.92 764.91,343.92 760.70,326.23 C758.11,315.38 754.60,306.77 749.96,299.94 C746.12,294.28 743.02,291.72 734.01,286.75 C730.17,284.63 730.52,282.61 734.79,282.19 C738.93,281.78 745.81,285.84 751.02,291.76 C767.51,310.49 773.22,346.29 764.52,376.34 L 762.22 384.27 L 765.60 388.70 C772.86,398.21 774.10,414.42 768.53,426.79 C763.15,438.70 751.43,446.50 739.27,446.26 L 734.04 446.15 L 731.98 453.08 C729.32,461.99 725.36,470.77 720.15,479.27 C717.87,482.99 716.00,486.19 716.00,486.38 C716.00,486.57 719.00,488.66 722.66,491.03 C726.32,493.39 732.34,498.18 736.03,501.67 C739.72,505.15 743.03,508.00 743.37,508.00 C743.72,508.00 744.00,505.72 744.00,502.92 C744.00,498.71 744.47,497.37 746.76,495.08 C750.29,491.56 758.45,488.51 769.58,486.57 C774.41,485.73 778.70,484.69 779.12,484.27 C779.53,483.85 779.47,479.00 778.97,473.50 C778.48,468.00 778.06,460.31 778.04,456.40 C777.99,447.73 779.26,446.24 788.27,444.35 C797.05,442.51 820.09,442.61 827.43,444.52 C830.65,445.36 833.54,445.79 833.85,445.48 C834.17,445.17 834.36,437.84 834.28,429.21 C833.50,343.08 783.53,264.23 705.50,225.98 C688.95,217.87 676.15,213.04 660.69,209.05 C620.55,198.70 580.75,198.71 540.26,209.08 C490.81,221.75 443.54,253.11 413.07,293.47 C367.34,354.05 354.24,431.91 377.62,504.22 C379.58,510.30 382.03,517.24 383.06,519.64 C384.88,523.88 385.05,524.00 389.53,524.00 C393.46,524.00 394.05,523.74 393.59,522.25 C391.73,516.30 381.12,460.21 381.57,458.77 C382.10,457.11 385.37,457.00 435.45,457.00 L 488.76 457.00 L 489.82 459.75 C490.41,461.26 493.42,476.90 496.51,494.50 C499.61,512.10 502.44,526.81 502.82,527.19 C503.19,527.56 508.67,528.17 515.00,528.54 C531.54,529.49 536.73,532.35 539.94,542.25 ZM 663.75 639.37 C669.24,641.01 702.70,637.22 715.60,633.50 C723.46,631.24 745.18,616.28 758.25,604.14 C763.47,599.29 765.30,594.82 767.03,582.71 C770.08,561.42 756.25,528.87 735.56,508.63 C727.78,501.01 715.58,491.99 713.09,492.01 C712.22,492.02 708.69,495.13 705.25,498.93 C694.00,511.38 675.60,523.54 659.00,529.49 C644.29,534.76 631.63,537.12 614.92,537.71 C596.94,538.34 585.65,536.86 570.98,531.94 L 562.00 528.93 L 558.75 532.62 C553.78,538.26 551.18,541.93 547.43,548.59 L 544.00 554.69 L 554.05 586.09 C559.58,603.37 564.38,618.17 564.71,619.00 C566.11,622.40 567.11,610.10 567.49,585.00 C567.87,559.33 567.95,558.49 569.91,558.19 C571.39,557.95 572.11,558.58 572.59,560.51 C573.81,565.36 572.28,612.94 570.60,622.70 C568.68,633.82 569.45,637.31 573.71,636.82 C576.31,636.51 576.41,636.29 576.14,631.28 C575.90,626.97 576.43,624.98 579.10,619.96 C587.36,604.46 605.14,595.72 631.50,594.19 C642.77,593.54 643.52,593.37 643.81,591.35 C644.21,588.52 646.03,587.87 668.00,582.60 C678.17,580.15 687.85,577.64 689.50,577.01 C697.31,574.04 701.48,565.29 700.85,553.16 C700.51,546.63 700.55,546.50 703.00,546.50 C705.42,546.50 705.51,546.75 705.80,554.00 C706.62,574.31 700.02,580.94 673.00,587.01 C665.58,588.67 657.14,590.72 654.24,591.55 L 648.99 593.06 L 650.88 596.78 C654.81,604.52 661.96,631.17 662.00,638.18 C662.00,638.55 662.79,639.09 663.75,639.37 ZM 588.00 530.51 C591.58,531.23 601.12,531.85 609.21,531.91 C650.06,532.17 685.29,516.08 707.67,486.93 C716.98,474.80 724.28,460.46 726.97,449.00 C728.04,444.45 728.53,442.23 729.91,441.18 C731.21,440.18 733.31,440.21 737.43,440.27 L 737.74 440.27 C744.31,440.36 746.29,439.97 750.65,437.73 C760.38,432.70 766.00,422.59 766.00,410.09 C766.00,398.60 761.87,390.21 754.60,386.91 C750.01,384.82 743.55,384.46 739.32,386.06 C735.54,387.48 729.28,393.63 726.89,398.25 C725.83,400.31 724.61,402.00 724.18,402.00 C722.77,402.00 721.00,399.64 721.00,397.75 C721.00,394.98 715.72,396.26 701.50,402.49 L 689.50 407.74 L 688.93 416.62 C688.00,431.13 684.71,439.66 676.57,448.71 C666.41,460.01 655.03,464.56 638.87,463.78 C629.70,463.34 628.31,462.99 620.46,459.10 C607.14,452.49 596.68,440.25 594.22,428.38 L 593.42 424.50 L 586.46 424.24 C576.31,423.87 574.57,425.04 574.21,432.53 C573.05,456.46 555.70,474.30 532.17,475.77 L 523.79 476.29 L 524.42 480.40 C526.56,494.46 542.01,511.90 560.69,521.35 C567.34,524.71 579.69,528.86 588.00,530.51 ZM 556.50 660.51 C570.20,663.17 571.68,663.32 572.40,662.16 C572.69,661.70 567.80,645.61 561.54,626.41 C555.28,607.21 546.45,580.03 541.91,566.00 C532.99,538.45 531.48,535.66 524.90,534.60 C516.42,533.23 388.00,529.26 388.00,530.37 C388.00,531.81 395.49,545.85 400.33,553.50 C407.85,565.37 417.91,578.76 425.01,586.35 L 431.30 593.07 L 433.40 591.10 C434.55,590.02 436.74,588.66 438.25,588.09 C440.52,587.23 441.00,586.44 441.00,583.59 C441.00,581.10 441.52,579.97 442.86,579.54 C446.15,578.50 448.00,579.96 448.00,583.59 C448.00,586.52 448.47,587.17 451.57,588.47 C456.01,590.32 458.47,593.22 460.46,598.93 C462.75,605.52 462.45,610.22 459.55,613.36 L 457.09 616.00 L 462.47 620.06 C470.34,626.01 488.03,636.46 499.50,641.93 C517.27,650.42 536.09,656.55 556.50,660.51 ZM 443.10 526.10 C466.97,526.98 488.86,527.76 491.75,527.85 C495.44,527.95 497.00,527.62 497.00,526.72 C497.00,526.01 495.24,515.77 493.10,503.97 C490.95,492.16 488.37,477.89 487.36,472.25 L 485.54 462.00 L 436.27 462.00 C400.69,462.00 387.00,462.31 387.00,463.12 C387.00,465.22 398.06,520.50 398.88,522.50 C399.67,524.42 401.41,524.56 443.10,526.10 ZM 627.97 455.78 C633.33,457.65 636.11,458.00 643.50,457.73 C651.14,457.44 653.49,456.91 659.07,454.23 C677.03,445.59 686.54,425.02 681.51,405.69 C677.99,392.19 670.76,382.97 659.23,377.27 C651.73,373.57 651.39,373.50 640.02,373.50 C628.98,373.50 628.15,373.65 621.82,376.77 C613.41,380.91 605.10,389.62 601.83,397.72 C599.86,402.61 599.50,405.27 599.50,415.00 C599.50,425.44 599.75,427.04 602.23,432.34 C607.62,443.83 616.23,451.67 627.97,455.78 ZM 523.67 469.33 C524.89,470.56 534.58,470.02 540.07,468.41 C550.94,465.23 560.03,457.42 564.86,447.12 C567.23,442.07 567.50,440.34 567.50,430.00 C567.50,419.06 567.34,418.18 564.26,411.87 C554.87,392.68 534.64,383.68 515.04,389.99 C511.17,391.23 508.00,392.48 508.00,392.76 C508.00,393.04 510.66,401.43 513.91,411.39 C521.52,434.72 523.00,442.11 523.00,456.79 C523.00,463.32 523.30,468.97 523.67,469.33 ZM 795.58 500.56 C798.17,501.52 802.55,501.92 808.50,501.75 C819.44,501.44 824.95,499.18 826.22,494.50 C830.27,479.55 833.71,456.31 832.11,454.71 C831.64,454.24 827.85,454.57 823.67,455.43 C812.46,457.75 802.85,457.49 785.59,454.39 L 781.68 453.69 L 782.31 467.09 C783.03,482.43 785.49,492.94 789.23,496.69 C790.57,498.03 793.43,499.77 795.58,500.56 ZM 605.57 644.43 C607.71,646.56 609.66,645.38 615.95,638.15 C618.76,634.92 622.61,631.45 624.52,630.42 C627.86,628.62 628.24,628.62 634.74,630.28 C642.35,632.24 648.60,632.48 652.52,630.99 C654.99,630.05 655.13,629.69 654.48,625.74 C654.09,623.41 652.14,616.55 650.14,610.50 L 646.50 599.50 L 635.48 599.63 C615.47,599.86 601.46,604.29 591.03,613.66 C582.79,621.07 578.58,631.74 582.58,635.06 C583.88,636.15 584.31,636.13 585.06,634.94 C585.56,634.15 585.98,632.92 585.98,632.21 C586.04,627.59 594.12,617.00 597.59,617.00 C600.63,617.00 600.84,619.93 597.97,622.53 C590.54,629.25 588.05,644.10 594.56,642.85 C595.79,642.61 597.78,639.86 600.09,635.22 C604.35,626.63 607.49,623.00 610.67,623.00 C613.80,623.00 613.67,625.42 610.35,629.36 C607.65,632.55 604.06,639.54 604.02,641.68 C604.01,642.33 604.71,643.56 605.57,644.43 ZM 464.69 307.92 C456.10,310.75 448.58,311.28 442.23,309.50 C433.42,307.04 427.99,303.44 429.47,301.04 C430.45,299.46 433.66,299.79 437.79,301.88 C443.58,304.82 450.53,305.36 458.68,303.50 C467.43,301.51 474.05,297.61 489.00,285.62 C503.63,273.88 508.09,270.72 521.00,262.96 C544.11,249.05 571.12,238.07 595.11,232.82 C604.22,230.83 608.27,230.55 628.00,230.56 C649.18,230.58 651.07,230.74 660.21,233.22 C673.33,236.79 686.80,243.88 694.17,251.08 C699.91,256.71 701.42,260.24 698.56,261.34 C697.68,261.68 695.00,259.81 691.72,256.59 C681.77,246.80 667.09,240.05 649.00,236.94 C639.52,235.32 616.96,235.30 606.50,236.92 C569.28,242.67 528.27,261.70 494.00,289.13 C479.12,301.04 472.31,305.41 464.69,307.92 ZM 510.14 465.38 C513.03,466.82 515.75,468.00 516.18,468.00 C518.69,468.00 518.32,451.30 515.52,437.77 C513.60,428.50 503.50,397.67 502.25,397.25 C500.61,396.70 494.94,403.26 491.94,409.15 C481.75,429.21 490.25,455.47 510.14,465.38 ZM 583.00 664.12 C584.92,664.46 592.80,664.81 600.50,664.91 L 614.50 665.08 L 635.20 656.82 C646.58,652.28 655.78,648.45 655.64,648.31 C655.50,648.16 646.71,647.54 636.11,646.93 C617.18,645.83 616.79,645.85 614.62,647.89 C611.08,651.21 606.41,651.68 602.87,649.06 C600.33,647.18 599.42,647.01 596.85,647.90 C593.38,649.11 588.86,647.36 586.75,643.97 C585.74,642.35 584.40,642.00 579.26,642.00 L 578.86 642.00 C575.98,642.00 574.29,642.00 573.59,642.83 C572.60,644.01 573.62,646.88 576.08,653.82 L 576.32 654.50 C579.39,663.19 579.62,663.52 583.00,664.12 ZM 787.50 513.32 C789.70,513.51 797.85,513.74 805.62,513.83 L 819.73 514.00 L 821.75 508.75 C822.86,505.86 823.70,503.42 823.63,503.33 C823.56,503.24 821.04,503.80 818.03,504.58 C810.99,506.41 803.88,506.38 796.64,504.49 C789.03,502.51 786.55,500.58 783.33,494.14 L 780.66 488.78 L 774.86 489.44 C761.56,490.94 748.76,495.86 748.20,499.69 C747.37,505.32 764.77,511.35 787.50,513.32 ZM 775.04 586.85 C775.15,588.55 787.34,573.01 795.72,560.50 C804.92,546.74 805.78,544.63 805.24,536.89 L 804.78 530.28 L 794.27 529.60 C788.48,529.23 783.58,529.08 783.38,529.28 C783.04,529.62 774.95,585.44 775.04,586.85 ZM 475.99 381.51 C474.18,383.69 460.97,383.44 454.20,381.11 C444.40,377.72 437.00,369.21 437.00,361.33 C437.00,355.72 440.86,347.32 446.03,341.66 L 450.92 336.31 L 442.17 336.40 C432.47,336.51 428.00,334.76 428.00,330.85 C428.00,328.90 428.32,328.81 432.25,329.62 C439.30,331.07 449.98,330.40 456.41,328.11 C463.87,325.44 465.69,325.46 466.56,328.19 C467.09,329.87 466.59,330.94 464.38,332.76 C444.51,349.19 439.34,358.48 444.94,367.67 C448.82,374.03 461.35,378.69 471.11,377.39 C475.08,376.86 476.08,377.05 476.59,378.39 C476.94,379.29 476.67,380.69 475.99,381.51 ZM 798.00 526.32 C800.47,526.52 805.20,526.65 808.49,526.60 C814.32,526.50 814.54,526.40 816.20,523.00 C817.14,521.08 817.93,519.16 817.95,518.75 C817.98,518.34 813.84,518.00 808.75,518.00 C787.51,518.00 764.05,514.54 754.14,509.95 C750.64,508.33 747.60,507.00 747.39,507.00 C746.78,507.00 746.94,510.67 747.62,512.46 C749.70,517.87 772.93,524.26 798.00,526.32 ZM 635.41 435.92 C630.13,442.20 622.72,438.17 619.43,427.23 C617.76,421.66 618.14,417.17 620.62,413.25 C621.70,411.55 622.99,411.00 625.94,411.00 C631.77,411.00 633.01,411.82 635.61,417.40 C638.95,424.57 638.87,431.81 635.41,435.92 ZM 552.01 443.75 C550.40,446.38 549.39,447.00 546.65,447.00 C541.94,447.00 538.45,443.87 536.46,437.88 C532.30,425.36 539.38,414.67 547.89,420.63 C553.56,424.60 555.85,437.45 552.01,443.75 ZM 477.14 482.00 L 476.50 486.50 L 440.50 486.73 C404.41,486.95 401.00,486.67 401.00,483.45 C401.00,482.21 406.48,482.00 439.07,482.00 ZM 610.78 490.93 C603.31,494.61 596.35,495.46 589.56,493.52 C583.28,491.73 576.50,487.03 576.50,484.47 C576.50,481.68 579.75,481.44 583.16,483.96 C586.72,486.59 593.31,489.00 596.95,489.00 C604.07,489.00 616.83,481.26 618.53,475.91 C619.31,473.44 624.31,473.60 624.79,476.10 C625.38,479.25 617.44,487.66 610.78,490.93 ZM 444.28 605.73 L 452.41 612.96 L 454.70 610.81 C457.46,608.22 457.59,604.88 455.12,599.47 C452.30,593.25 450.57,592.00 444.76,592.00 C439.37,592.00 435.93,593.94 436.08,596.90 C436.12,597.78 439.81,601.75 444.28,605.73 ZM 772.00 568.22 C772.00,570.87 773.97,572.36 774.02,569.75 C774.04,569.06 775.33,559.50 776.90,548.50 C778.47,537.50 779.64,528.37 779.50,528.21 C779.36,528.05 777.69,527.66 775.78,527.35 L 772.32 526.79 L 770.71 540.65 C769.29,552.89 769.27,555.14 770.55,559.97 C771.35,562.98 772.00,566.69 772.00,568.22 ZM 454.96 496.54 C453.25,498.60 407.34,498.70 404.54,496.65 C400.23,493.50 403.66,493.00 429.50,493.00 C455.07,493.00 457.61,493.35 454.96,496.54 ZM 481.14 505.00 L 480.50 509.50 L 455.84 509.77 C434.34,510.00 430.97,509.83 429.58,508.44 C428.70,507.56 428.24,506.43 428.55,505.92 C428.87,505.40 440.39,505.00 455.13,505.00 ZM 588.47 463.38 C586.43,465.43 585.46,465.39 580.32,463.06 C575.57,460.90 572.50,456.18 573.58,452.70 C573.95,451.49 576.03,448.57 578.19,446.20 C581.66,442.42 582.09,441.41 581.81,437.70 C581.52,433.80 581.68,433.50 584.00,433.50 C586.34,433.50 586.52,433.87 586.80,439.22 C587.08,444.68 586.92,445.13 583.05,449.33 C580.82,451.75 579.00,454.18 579.00,454.74 C579.00,456.47 581.94,458.31 585.72,458.92 C589.88,459.60 590.79,461.07 588.47,463.38 ZM 450.50 517.50 C450.50,519.43 449.75,519.51 430.00,519.75 C418.73,519.88 408.87,519.59 408.10,519.10 C407.33,518.60 406.99,517.48 407.33,516.58 C407.88,515.14 410.38,514.99 429.23,515.23 C449.74,515.49 450.50,515.57 450.50,517.50 ZM 717.43 257.47 C717.49,263.35 717.22,264.50 715.75,264.80 C713.75,265.20 713.61,264.87 711.99,256.02 C710.74,249.14 708.04,242.88 704.80,239.34 C702.75,237.10 702.66,233.95 704.62,233.29 C706.80,232.57 711.72,237.99 714.53,244.21 C716.74,249.10 717.38,252.05 717.43,257.47 ZM 638.00 641.78 C638.98,641.84 639.90,641.89 640.77,641.95 C652.60,642.67 655.56,642.85 656.28,641.67 C656.52,641.27 656.52,640.73 656.50,640.00 C656.50,639.84 656.50,639.67 656.50,639.49 C656.50,637.07 656.12,636.56 654.50,636.80 C646.11,638.07 642.86,638.03 637.36,636.60 C633.98,635.72 630.29,635.00 629.16,635.00 C627.05,635.00 621.10,639.43 622.00,640.33 C622.28,640.61 629.48,641.26 638.00,641.78 ZM 763.14 538.51 C764.44,541.51 765.80,543.97 766.16,543.98 C766.82,544.00 767.35,541.18 768.54,531.35 L 769.16 526.19 L 762.06 523.95 C758.15,522.72 754.77,521.89 754.55,522.12 C754.32,522.34 755.63,524.89 757.46,527.79 C759.28,530.68 761.84,535.51 763.14,538.51 ZM 735.23 267.55 C733.19,268.40 730.59,269.97 729.45,271.05 C727.61,272.78 727.16,272.83 725.44,271.56 C723.05,269.78 724.12,267.57 728.98,264.26 C735.46,259.84 749.00,258.18 749.00,261.80 C749.00,264.61 746.94,266.00 742.77,266.00 C740.66,266.00 737.27,266.70 735.23,267.55 ZM 671.99 652.25 C672.00,653.21 672.21,654.00 672.46,654.00 C672.71,654.00 678.22,651.95 684.71,649.44 C697.65,644.44 701.02,642.35 694.50,643.36 C692.30,643.70 685.72,644.27 679.88,644.63 L 669.27 645.28 L 670.63 647.89 C671.38,649.33 671.99,651.29 671.99,652.25 ZM 808.04 436.46 C805.84,439.10 803.25,437.79 805.05,434.95 C806.70,432.34 806.05,428.34 802.88,421.55 C799.47,414.27 799.39,409.44 802.61,405.88 C806.01,402.12 808.53,404.39 805.47,408.44 C803.31,411.30 803.67,415.42 806.59,421.18 C809.43,426.79 810.11,433.96 808.04,436.46 ZM 785.47 450.60 C786.52,451.37 787.41,451.99 787.44,451.98 C787.47,451.98 789.30,451.32 791.50,450.53 C796.49,448.73 814.16,448.54 822.19,450.20 C826.50,451.09 828.29,451.11 829.13,450.27 C829.96,449.44 829.12,448.81 825.88,447.86 C819.97,446.12 793.97,446.14 788.03,447.88 C783.85,449.11 783.68,449.29 785.47,450.60 ZM 643.00 660.19 C643.00,661.40 644.11,661.24 655.62,658.35 C665.80,655.80 667.82,654.58 666.69,651.64 C666.29,650.59 663.53,651.31 654.58,654.83 C648.21,657.33 643.00,659.74 643.00,660.19 ZM 811.64 485.21 C808.41,492.67 806.62,493.11 803.58,487.18 C800.97,482.10 801.73,480.69 807.22,480.37 C809.82,480.22 812.19,480.51 812.50,481.00 C812.81,481.50 812.42,483.39 811.64,485.21 ZM 795.39 435.42 C794.29,438.29 792.00,437.21 792.00,433.82 C792.00,432.06 791.04,428.66 789.87,426.24 C788.12,422.62 787.95,421.41 788.89,419.35 C790.29,416.27 792.59,416.81 792.25,420.14 C792.11,421.47 792.89,424.33 794.00,426.49 C796.08,430.58 796.42,432.74 795.39,435.42 ZM 809.92 470.63 C808.77,472.48 807.43,474.00 806.94,474.00 C805.65,474.00 801.77,466.04 802.34,464.56 C802.62,463.84 804.73,463.29 807.41,463.25 C811.39,463.19 812.00,463.45 812.00,465.22 C812.00,466.35 811.06,468.78 809.92,470.63 ZM 420.46 508.65 C418.39,510.16 410.68,510.35 407.25,508.97 C406.01,508.47 405.00,507.37 405.00,506.53 C405.00,505.28 406.47,505.00 412.94,505.00 C421.27,505.00 423.79,506.22 420.46,508.65 ZM 795.01 482.98 C793.09,487.62 791.64,488.32 789.28,485.74 C786.53,482.73 785.59,479.38 787.21,478.36 C789.40,477.00 795.14,477.21 795.71,478.68 C795.99,479.42 795.68,481.36 795.01,482.98 ZM 825.93 484.10 C824.79,485.69 823.44,487.00 822.92,487.00 C821.99,487.00 818.01,481.18 818.00,479.81 C818.00,478.55 820.46,477.55 824.25,477.29 C827.46,477.07 828.00,477.33 828.00,479.11 C828.00,480.26 827.07,482.50 825.93,484.10 ZM 821.81 429.80 C821.59,432.44 820.98,433.58 819.65,433.83 C818.09,434.13 817.90,433.74 818.43,431.30 C818.85,429.40 818.38,426.86 817.08,423.90 C814.78,418.72 815.26,415.00 818.23,415.00 C819.85,415.00 820.10,415.46 819.59,417.51 C819.21,419.00 819.60,421.25 820.54,423.07 C821.40,424.75 821.98,427.78 821.81,429.80 ZM 826.01 468.75 C824.92,470.54 823.87,472.00 823.67,472.00 C823.02,472.00 820.28,468.55 819.08,466.23 C817.44,463.06 818.25,462.33 823.46,462.25 C828.72,462.17 829.23,463.47 826.01,468.75 ZM 793.39 468.54 C792.50,469.89 791.45,471.00 791.06,471.00 C789.55,471.00 786.00,466.27 786.00,464.27 C786.00,462.44 786.59,462.17 790.50,462.17 C794.30,462.17 795.00,462.47 795.00,464.12 C795.00,465.19 794.27,467.18 793.39,468.54 ZM 406.80 471.80 C404.74,473.86 403.00,472.96 403.00,469.83 C403.00,468.54 403.74,468.00 405.50,468.00 C408.16,468.00 408.78,469.82 406.80,471.80 ZM 397.50 469.93 C397.50,472.83 395.77,473.63 394.04,471.55 C392.40,469.57 393.50,466.76 395.75,467.19 C396.84,467.40 397.50,468.44 397.50,469.93 ZM 416.82 470.17 C416.42,472.89 414.69,473.53 413.06,471.58 C411.51,469.71 412.50,468.00 415.13,468.00 C416.62,468.00 417.06,468.56 416.82,470.17 ZM 809.00 533.67 C809.00,537.79 809.10,537.78 811.40,533.25 C813.00,530.11 812.98,530.00 811.03,530.00 C809.36,530.00 809.00,530.65 809.00,533.67 Z" fill="rgb(4,4,4)"/>
<path d="M 544.00 554.69 L 544.01 554.67 L 553.61 584.59 C558.89,601.04 563.58,615.17 564.03,616.00 C564.68,617.18 565.12,616.85 566.09,614.50 C566.22,614.18 566.34,613.67 566.46,612.98 C565.99,618.55 565.40,620.67 564.71,619.00 C564.38,618.17 559.58,603.37 554.05,586.09 ZM 568.55 559.38 C568.86,558.43 569.29,558.28 569.91,558.19 C569.29,558.28 568.87,558.43 568.55,559.38 Z" fill="rgb(155,155,155)"/>
<path d="M 0.00 432.00 L 0.00 0.00 L 592.00 0.00 L 1184.00 0.00 L 1184.00 432.00 L 1184.00 864.00 L 592.00 864.00 L 0.00 864.00 L 0.00 432.00 ZM 635.00 671.49 C726.37,658.36 802.85,594.54 831.53,507.50 C839.66,482.85 843.19,460.53 843.25,433.50 C843.33,394.31 836.09,362.64 819.03,327.50 C773.24,233.16 669.94,179.50 563.98,195.01 C524.44,200.79 483.15,218.21 451.15,242.61 C400.52,281.19 367.64,338.37 358.88,403.00 C357.24,415.09 357.24,447.48 358.87,460.50 C365.61,514.30 387.00,559.53 424.01,598.28 C464.91,641.12 519.98,667.40 580.50,672.96 C593.55,674.15 621.73,673.40 635.00,671.49 ZM 583.00 664.12 C579.62,663.52 579.39,663.19 576.32,654.50 C571.81,641.77 571.75,642.00 579.26,642.00 C584.40,642.00 585.74,642.35 586.75,643.97 C588.86,647.36 593.38,649.11 596.85,647.90 C599.42,647.01 600.33,647.18 602.87,649.06 C606.41,651.68 611.08,651.21 614.62,647.89 C616.79,645.85 617.18,645.83 636.11,646.93 C646.71,647.54 655.50,648.16 655.64,648.31 C655.78,648.45 646.58,652.28 635.20,656.82 L 614.50 665.08 L 600.50 664.91 C592.80,664.81 584.92,664.46 583.00,664.12 ZM 556.50 660.51 C536.09,656.55 517.27,650.42 499.50,641.93 C488.03,636.46 470.34,626.01 462.47,620.06 L 457.09 616.00 L 459.55 613.36 C462.45,610.22 462.75,605.52 460.46,598.93 C458.47,593.22 456.01,590.32 451.57,588.47 C448.47,587.17 448.00,586.52 448.00,583.59 C448.00,579.96 446.15,578.50 442.86,579.54 C441.52,579.97 441.00,581.10 441.00,583.59 C441.00,586.44 440.52,587.23 438.25,588.09 C436.74,588.66 434.55,590.02 433.40,591.10 L 431.30 593.07 L 425.01 586.35 C417.91,578.76 407.85,565.37 400.33,553.50 C395.49,545.85 388.00,531.81 388.00,530.37 C388.00,529.26 516.42,533.23 524.90,534.60 C531.48,535.66 532.99,538.45 541.91,566.00 C546.45,580.03 555.28,607.21 561.54,626.41 C567.80,645.61 572.69,661.70 572.40,662.16 C571.68,663.32 570.20,663.17 556.50,660.51 ZM 643.00 660.19 C643.00,659.74 648.21,657.33 654.58,654.83 C663.53,651.31 666.29,650.59 666.69,651.64 C667.82,654.58 665.80,655.80 655.62,658.35 C644.11,661.24 643.00,661.40 643.00,660.19 ZM 671.99 652.25 C671.99,651.29 671.38,649.33 670.63,647.89 L 669.27 645.28 L 679.88 644.63 C685.72,644.27 692.30,643.70 694.50,643.36 C701.02,642.35 697.65,644.44 684.71,649.44 C678.22,651.95 672.71,654.00 672.46,654.00 C672.21,654.00 672.00,653.21 671.99,652.25 ZM 605.57 644.43 C604.71,643.56 604.01,642.33 604.02,641.68 C604.06,639.54 607.65,632.55 610.35,629.36 C613.67,625.42 613.80,623.00 610.67,623.00 C607.49,623.00 604.35,626.63 600.09,635.22 C597.78,639.86 595.79,642.61 594.56,642.85 C588.05,644.10 590.54,629.25 597.97,622.53 C600.84,619.93 600.63,617.00 597.59,617.00 C594.12,617.00 586.04,627.59 585.98,632.21 C585.98,632.92 585.56,634.15 585.06,634.94 C584.31,636.13 583.88,636.15 582.58,635.06 C578.58,631.74 582.79,621.07 591.03,613.66 C601.46,604.29 615.47,599.86 635.48,599.63 L 646.50 599.50 L 650.14 610.50 C652.14,616.55 654.09,623.41 654.48,625.74 C655.13,629.69 654.99,630.05 652.52,630.99 C648.60,632.48 642.35,632.24 634.74,630.28 C628.24,628.62 627.86,628.62 624.52,630.42 C622.61,631.45 618.76,634.92 615.95,638.15 C609.66,645.38 607.71,646.56 605.57,644.43 ZM 638.00 641.78 C629.48,641.26 622.28,640.61 622.00,640.33 C621.10,639.43 627.05,635.00 629.16,635.00 C630.29,635.00 633.98,635.72 637.36,636.60 C642.86,638.03 646.11,638.07 654.50,636.80 C656.12,636.56 656.50,637.07 656.50,639.49 C656.50,643.09 657.52,642.96 638.00,641.78 ZM 663.75 639.37 C662.79,639.09 662.00,638.55 662.00,638.18 C661.96,631.17 654.81,604.52 650.88,596.78 L 648.99 593.06 L 654.24 591.55 C657.14,590.72 665.58,588.67 673.00,587.01 C700.02,580.94 706.62,574.31 705.80,554.00 C705.51,546.75 705.42,546.50 703.00,546.50 C700.55,546.50 700.51,546.63 700.85,553.16 C701.48,565.29 697.31,574.04 689.50,577.01 C687.85,577.64 678.17,580.15 668.00,582.60 C646.03,587.87 644.21,588.52 643.81,591.35 C643.52,593.37 642.77,593.54 631.50,594.19 C605.14,595.72 587.36,604.46 579.10,619.96 C576.43,624.98 575.90,626.97 576.14,631.28 C576.41,636.29 576.31,636.51 573.71,636.82 C569.45,637.31 568.68,633.82 570.60,622.70 C572.28,612.94 573.81,565.36 572.59,560.51 C572.11,558.58 571.39,557.95 569.91,558.19 C567.95,558.49 567.88,559.29 567.60,585.00 C567.41,603.04 566.92,612.46 566.09,614.50 C565.12,616.85 564.68,617.18 564.03,616.00 C563.58,615.17 558.89,601.04 553.61,584.59 L 544.01 554.67 L 547.44 548.59 C551.18,541.93 553.78,538.26 558.75,532.62 L 562.00 528.93 L 570.98 531.94 C585.65,536.86 596.94,538.34 614.92,537.71 C631.63,537.12 644.29,534.76 659.00,529.49 C675.60,523.54 694.00,511.38 705.25,498.93 C708.69,495.13 712.22,492.02 713.09,492.01 C715.58,491.99 727.78,501.01 735.56,508.63 C756.25,528.87 770.08,561.42 767.03,582.71 C765.30,594.82 763.47,599.29 758.25,604.14 C745.18,616.28 723.46,631.24 715.60,633.50 C702.70,637.22 669.24,641.01 663.75,639.37 ZM 444.28 605.73 C439.81,601.75 436.12,597.78 436.08,596.90 C435.93,593.94 439.37,592.00 444.76,592.00 C450.57,592.00 452.30,593.25 455.12,599.47 C457.59,604.88 457.46,608.22 454.70,610.81 L 452.41 612.96 L 444.28 605.73 ZM 775.04 586.85 C774.95,585.44 783.04,529.62 783.38,529.28 C783.58,529.08 788.48,529.23 794.27,529.60 L 804.78 530.28 L 805.24 536.89 C805.78,544.63 804.92,546.74 795.72,560.50 C787.34,573.01 775.15,588.55 775.04,586.85 ZM 772.00 568.22 C772.00,566.69 771.35,562.98 770.55,559.97 C769.27,555.14 769.29,552.89 770.71,540.65 L 772.32 526.79 L 775.78 527.35 C777.69,527.66 779.36,528.05 779.50,528.21 C779.64,528.37 778.47,537.50 776.90,548.50 C775.33,559.50 774.04,569.06 774.02,569.75 C773.97,572.36 772.00,570.87 772.00,568.22 ZM 539.94 542.25 C536.73,532.35 531.54,529.49 515.00,528.54 C508.67,528.17 503.19,527.56 502.82,527.19 C502.44,526.81 499.61,512.10 496.51,494.50 C493.42,476.90 490.41,461.26 489.82,459.75 L 488.76 457.00 L 435.45 457.00 C385.37,457.00 382.10,457.11 381.57,458.77 C381.12,460.21 391.73,516.30 393.59,522.25 C394.05,523.74 393.46,524.00 389.53,524.00 C385.05,524.00 384.88,523.88 383.06,519.64 C382.03,517.24 379.58,510.30 377.62,504.22 C354.24,431.91 367.34,354.05 413.07,293.47 C443.54,253.11 490.81,221.75 540.26,209.08 C580.75,198.71 620.55,198.70 660.69,209.05 C676.15,213.04 688.95,217.87 705.50,225.98 C783.53,264.23 833.50,343.08 834.28,429.21 C834.36,437.84 834.17,445.17 833.85,445.48 C833.54,445.79 830.65,445.36 827.43,444.52 C820.09,442.61 797.05,442.51 788.27,444.35 C779.26,446.24 777.99,447.73 778.04,456.40 C778.06,460.31 778.48,468.00 778.97,473.50 C779.47,479.00 779.53,483.85 779.12,484.27 C778.70,484.69 774.41,485.73 769.58,486.57 C758.45,488.51 750.29,491.56 746.76,495.08 C744.47,497.37 744.00,498.71 744.00,502.92 C744.00,505.72 743.72,508.00 743.37,508.00 C743.03,508.00 739.72,505.15 736.03,501.67 C732.34,498.18 726.32,493.39 722.66,491.03 C719.00,488.66 716.00,486.57 716.00,486.38 C716.00,486.19 717.87,482.99 720.15,479.27 C725.36,470.77 729.32,461.99 731.98,453.08 L 734.04 446.15 L 739.27 446.26 C751.43,446.50 763.15,438.70 768.53,426.79 C774.10,414.42 772.86,398.21 765.60,388.70 L 762.22 384.27 L 764.52 376.34 C773.22,346.29 767.51,310.49 751.02,291.76 C745.81,285.84 738.93,281.78 734.79,282.19 C730.52,282.61 730.17,284.63 734.01,286.75 C743.02,291.72 746.12,294.28 749.96,299.94 C754.60,306.77 758.11,315.38 760.70,326.23 C764.91,343.92 760.89,382.92 755.11,380.41 C754.22,380.02 750.77,379.50 747.43,379.25 C742.66,378.89 740.26,379.26 736.21,381.00 C733.38,382.22 730.54,383.84 729.91,384.61 C729.27,385.37 727.89,386.00 726.84,386.00 C725.78,386.00 723.19,386.89 721.06,387.97 L 717.21 389.93 L 711.32 386.13 C708.08,384.04 703.73,380.34 701.65,377.91 C696.64,372.06 691.37,361.15 689.40,352.50 C688.52,348.65 687.63,344.94 687.43,344.25 C686.90,342.46 683.33,342.70 682.61,344.58 C681.45,347.60 684.99,360.57 689.45,369.60 C693.06,376.93 695.32,380.01 701.06,385.42 C704.98,389.12 707.94,392.40 707.63,392.70 C706.89,393.44 687.71,402.08 687.54,401.75 C687.46,401.61 685.76,398.10 683.75,393.95 C679.11,384.38 669.99,375.29 660.60,370.90 C653.11,367.39 642.11,365.91 632.96,367.16 C610.89,370.18 594.74,387.55 592.46,410.73 L 591.77 417.75 L 584.63 418.30 C580.71,418.61 576.55,419.15 575.39,419.51 C573.63,420.05 573.18,419.65 572.66,417.06 C570.42,405.86 559.21,392.19 547.51,386.41 C541.06,383.22 539.18,382.77 530.38,382.34 C520.93,381.88 518.87,382.17 508.30,385.51 C505.99,386.24 506.12,386.48 504.51,378.63 C504.06,376.41 504.66,376.06 513.77,373.17 C534.64,366.56 560.23,351.71 584.11,332.36 C587.75,329.41 591.05,327.00 591.45,327.00 C592.57,327.00 585.31,339.76 581.70,344.13 C579.94,346.27 575.91,350.06 572.75,352.57 C569.59,355.08 567.00,357.71 567.00,358.41 C567.00,361.18 571.07,363.38 576.98,363.80 C587.69,364.58 602.51,358.69 617.22,347.82 C620.91,345.09 629.08,337.49 635.36,330.93 C641.65,324.37 647.06,319.00 647.40,319.00 C647.73,319.00 648.00,320.46 648.01,322.25 C648.02,328.11 652.01,342.35 655.78,349.99 C660.05,358.64 668.31,367.51 674.80,370.42 C678.60,372.13 679.25,372.17 680.58,370.85 C682.51,368.92 681.50,366.34 678.51,365.59 C677.22,365.27 673.66,362.72 670.60,359.92 C660.81,350.97 654.85,335.93 653.20,315.99 C652.53,307.87 652.39,307.49 649.98,307.21 C647.87,306.96 646.63,308.04 642.52,313.71 C635.65,323.18 619.00,339.46 609.61,345.90 C599.89,352.57 589.59,356.99 582.14,357.71 L 576.50 358.25 L 581.08 353.37 C592.01,341.74 598.14,330.52 598.37,321.70 C598.49,316.99 598.28,316.47 596.20,316.17 C594.53,315.94 591.91,317.60 586.70,322.21 C557.52,348.01 525.34,365.69 496.84,371.59 C487.74,373.48 485.57,374.71 486.60,377.40 C487.18,378.91 488.09,379.07 492.96,378.50 L 498.64 377.85 L 499.66 383.51 L 500.69 389.18 L 495.31 394.26 C484.82,404.19 479.57,420.38 482.01,435.29 C485.04,453.82 497.62,468.21 516.10,474.30 C517.18,474.65 517.90,476.54 518.32,480.09 C520.09,494.96 534.12,512.91 552.21,523.41 L 556.91 526.14 L 552.52 531.52 C550.11,534.49 546.94,538.95 545.47,541.45 C544.01,543.95 542.44,546.00 541.98,546.00 C541.53,546.00 540.61,544.31 539.94,542.25 ZM 808.04 436.46 C810.11,433.96 809.43,426.79 806.59,421.18 C803.67,415.42 803.31,411.30 805.47,408.44 C808.53,404.39 806.01,402.12 802.61,405.88 C799.39,409.44 799.47,414.27 802.88,421.55 C806.05,428.34 806.70,432.34 805.05,434.95 C803.25,437.79 805.84,439.10 808.04,436.46 ZM 795.39 435.42 C796.42,432.74 796.08,430.58 794.00,426.49 C792.89,424.33 792.11,421.47 792.25,420.14 C792.59,416.81 790.29,416.27 788.89,419.35 C787.95,421.41 788.12,422.62 789.87,426.24 C791.04,428.66 792.00,432.06 792.00,433.82 C792.00,437.21 794.29,438.29 795.39,435.42 ZM 821.81 429.80 C821.98,427.78 821.40,424.75 820.54,423.07 C819.60,421.25 819.21,419.00 819.59,417.51 C820.10,415.46 819.85,415.00 818.23,415.00 C815.26,415.00 814.78,418.72 817.08,423.90 C818.38,426.86 818.85,429.40 818.43,431.30 C817.90,433.74 818.09,434.13 819.65,433.83 C820.98,433.58 821.59,432.44 821.81,429.80 ZM 475.99 381.51 C476.67,380.69 476.94,379.29 476.59,378.39 C476.08,377.05 475.08,376.86 471.11,377.39 C461.35,378.69 448.82,374.03 444.94,367.67 C439.34,358.48 444.51,349.19 464.38,332.76 C466.59,330.94 467.09,329.87 466.56,328.19 C465.69,325.46 463.87,325.44 456.41,328.11 C449.98,330.40 439.30,331.07 432.25,329.62 C428.32,328.81 428.00,328.90 428.00,330.85 C428.00,334.76 432.47,336.51 442.17,336.40 L 450.92 336.31 L 446.03 341.66 C440.86,347.32 437.00,355.72 437.00,361.33 C437.00,369.21 444.40,377.72 454.20,381.11 C460.97,383.44 474.18,383.69 475.99,381.51 ZM 464.69 307.92 C472.31,305.41 479.12,301.04 494.00,289.13 C528.27,261.70 569.28,242.67 606.50,236.92 C616.96,235.30 639.52,235.32 649.00,236.94 C667.09,240.05 681.77,246.80 691.72,256.59 C695.00,259.81 697.68,261.68 698.56,261.34 C701.42,260.24 699.91,256.71 694.17,251.08 C686.80,243.88 673.33,236.79 660.21,233.22 C651.07,230.74 649.18,230.58 628.00,230.56 C608.27,230.55 604.22,230.83 595.11,232.82 C571.12,238.07 544.11,249.05 521.00,262.96 C508.09,270.72 503.63,273.88 489.00,285.62 C474.05,297.61 467.43,301.51 458.68,303.50 C450.53,305.36 443.58,304.82 437.79,301.88 C433.66,299.79 430.45,299.46 429.47,301.04 C427.99,303.44 433.42,307.04 442.23,309.50 C448.58,311.28 456.10,310.75 464.69,307.92 ZM 735.23 267.55 C737.27,266.70 740.66,266.00 742.77,266.00 C746.94,266.00 749.00,264.61 749.00,261.80 C749.00,258.18 735.46,259.84 728.98,264.26 C724.12,267.57 723.05,269.78 725.44,271.56 C727.16,272.83 727.61,272.78 729.45,271.05 C730.59,269.97 733.19,268.40 735.23,267.55 ZM 717.43 257.47 C717.38,252.05 716.74,249.10 714.53,244.21 C711.72,237.99 706.80,232.57 704.62,233.29 C702.66,233.95 702.75,237.10 704.80,239.34 C708.04,242.88 710.74,249.14 711.99,256.02 C713.61,264.87 713.75,265.20 715.75,264.80 C717.22,264.50 717.49,263.35 717.43,257.47 ZM 763.14 538.51 C761.84,535.51 759.28,530.68 757.46,527.79 C755.63,524.89 754.32,522.34 754.55,522.12 C754.77,521.89 758.15,522.72 762.06,523.95 L 769.16 526.19 L 768.54 531.35 C767.35,541.18 766.82,544.00 766.16,543.98 C765.80,543.97 764.44,541.51 763.14,538.51 ZM 809.00 533.67 C809.00,530.65 809.36,530.00 811.03,530.00 C812.98,530.00 813.00,530.11 811.40,533.25 C809.10,537.78 809.00,537.79 809.00,533.67 ZM 588.00 530.51 C579.69,528.86 567.34,524.71 560.69,521.35 C542.01,511.90 526.56,494.46 524.42,480.40 L 523.79 476.29 L 532.17 475.77 C555.70,474.30 573.05,456.46 574.21,432.53 C574.57,425.04 576.31,423.87 586.46,424.24 L 593.42 424.50 L 594.22 428.38 C596.68,440.25 607.14,452.49 620.46,459.10 C628.31,462.99 629.70,463.34 638.87,463.78 C655.03,464.56 666.41,460.01 676.57,448.71 C684.71,439.66 688.00,431.13 688.93,416.62 L 689.50 407.74 L 701.50 402.49 C715.72,396.26 721.00,394.98 721.00,397.75 C721.00,399.64 722.77,402.00 724.18,402.00 C724.61,402.00 725.83,400.31 726.89,398.25 C729.28,393.63 735.54,387.48 739.32,386.06 C743.55,384.46 750.01,384.82 754.60,386.91 C761.87,390.21 766.00,398.60 766.00,410.09 C766.00,422.59 760.38,432.70 750.65,437.73 C746.29,439.97 744.31,440.36 737.74,440.27 C728.94,440.14 729.08,440.04 726.97,449.00 C724.28,460.46 716.98,474.80 707.67,486.93 C685.29,516.08 650.06,532.17 609.21,531.91 C601.12,531.85 591.58,531.23 588.00,530.51 ZM 610.78 490.93 C617.44,487.66 625.38,479.25 624.79,476.10 C624.31,473.60 619.31,473.44 618.53,475.91 C616.83,481.26 604.07,489.00 596.95,489.00 C593.31,489.00 586.72,486.59 583.16,483.96 C579.75,481.44 576.50,481.68 576.50,484.47 C576.50,487.03 583.28,491.73 589.56,493.52 C596.35,495.46 603.31,494.61 610.78,490.93 ZM 588.47 463.38 C590.79,461.07 589.88,459.60 585.72,458.92 C581.94,458.31 579.00,456.47 579.00,454.74 C579.00,454.18 580.82,451.75 583.05,449.33 C586.92,445.13 587.08,444.68 586.80,439.22 C586.52,433.87 586.34,433.50 584.00,433.50 C581.68,433.50 581.52,433.80 581.81,437.70 C582.09,441.41 581.66,442.42 578.19,446.20 C576.03,448.57 573.95,451.49 573.58,452.70 C572.50,456.18 575.57,460.90 580.32,463.06 C585.46,465.39 586.43,465.43 588.47,463.38 ZM 443.10 526.10 C401.41,524.56 399.67,524.42 398.88,522.50 C398.06,520.50 387.00,465.22 387.00,463.12 C387.00,462.31 400.69,462.00 436.27,462.00 L 485.54 462.00 L 487.36 472.25 C488.37,477.89 490.95,492.16 493.10,503.97 C495.24,515.77 497.00,526.01 497.00,526.72 C497.00,527.62 495.44,527.95 491.75,527.85 C488.86,527.76 466.97,526.98 443.10,526.10 ZM 450.50 517.50 C450.50,515.57 449.74,515.49 429.23,515.23 C410.38,514.99 407.88,515.14 407.33,516.58 C406.99,517.48 407.33,518.60 408.10,519.10 C408.87,519.59 418.73,519.88 430.00,519.75 C449.75,519.51 450.50,519.43 450.50,517.50 ZM 420.46 508.65 C423.79,506.22 421.27,505.00 412.94,505.00 C406.47,505.00 405.00,505.28 405.00,506.53 C405.00,507.37 406.01,508.47 407.25,508.97 C410.68,510.35 418.39,510.16 420.46,508.65 ZM 480.82 507.25 L 481.14 505.00 L 455.13 505.00 C440.39,505.00 428.87,505.40 428.55,505.92 C428.24,506.43 428.70,507.56 429.58,508.44 C430.97,509.83 434.34,510.00 455.84,509.77 L 480.50 509.50 L 480.82 507.25 ZM 454.96 496.54 C457.61,493.35 455.07,493.00 429.50,493.00 C403.66,493.00 400.23,493.50 404.54,496.65 C407.34,498.70 453.25,498.60 454.96,496.54 ZM 476.82 484.25 L 477.14 482.00 L 439.07 482.00 C406.48,482.00 401.00,482.21 401.00,483.45 C401.00,486.67 404.41,486.95 440.50,486.73 L 476.50 486.50 L 476.82 484.25 ZM 397.50 469.93 C397.50,468.44 396.84,467.40 395.75,467.19 C393.50,466.76 392.40,469.57 394.04,471.55 C395.77,473.63 397.50,472.83 397.50,469.93 ZM 406.80 471.80 C408.78,469.82 408.16,468.00 405.50,468.00 C403.74,468.00 403.00,468.54 403.00,469.83 C403.00,472.96 404.74,473.86 406.80,471.80 ZM 416.82 470.17 C417.06,468.56 416.62,468.00 415.13,468.00 C412.50,468.00 411.51,469.71 413.06,471.58 C414.69,473.53 416.42,472.89 416.82,470.17 ZM 798.00 526.32 C772.93,524.26 749.70,517.87 747.62,512.46 C746.94,510.67 746.78,507.00 747.39,507.00 C747.60,507.00 750.64,508.33 754.14,509.95 C764.05,514.54 787.51,518.00 808.75,518.00 C813.84,518.00 817.98,518.34 817.95,518.75 C817.93,519.16 817.14,521.08 816.20,523.00 C814.54,526.40 814.32,526.50 808.49,526.60 C805.20,526.65 800.47,526.52 798.00,526.32 ZM 787.50 513.32 C764.77,511.35 747.37,505.32 748.20,499.69 C748.76,495.86 761.56,490.94 774.86,489.44 L 780.66 488.78 L 783.33 494.14 C786.55,500.58 789.03,502.51 796.64,504.49 C803.88,506.38 810.99,506.41 818.03,504.58 C821.04,503.80 823.56,503.24 823.63,503.33 C823.70,503.42 822.86,505.86 821.75,508.75 L 819.73 514.00 L 805.62 513.83 C797.85,513.74 789.70,513.51 787.50,513.32 ZM 795.58 500.56 C793.43,499.77 790.57,498.03 789.23,496.69 C785.49,492.94 783.03,482.43 782.31,467.09 L 781.68 453.69 L 785.59 454.39 C802.85,457.49 812.46,457.75 823.67,455.43 C827.85,454.57 831.64,454.24 832.11,454.71 C833.71,456.31 830.27,479.55 826.22,494.50 C824.95,499.18 819.44,501.44 808.50,501.75 C802.55,501.92 798.17,501.52 795.58,500.56 ZM 811.64 485.21 C812.42,483.39 812.81,481.50 812.50,481.00 C812.19,480.51 809.82,480.22 807.22,480.37 C801.73,480.69 800.97,482.10 803.58,487.18 C806.62,493.11 808.41,492.67 811.64,485.21 ZM 795.01 482.98 C795.68,481.36 795.99,479.42 795.71,478.68 C795.14,477.21 789.40,477.00 787.21,478.36 C785.59,479.38 786.53,482.73 789.28,485.74 C791.64,488.32 793.09,487.62 795.01,482.98 ZM 825.93 484.10 C827.07,482.50 828.00,480.26 828.00,479.11 C828.00,477.33 827.46,477.07 824.25,477.29 C820.46,477.55 818.00,478.55 818.00,479.81 C818.01,481.18 821.99,487.00 822.92,487.00 C823.44,487.00 824.79,485.69 825.93,484.10 ZM 809.92 470.63 C811.06,468.78 812.00,466.35 812.00,465.22 C812.00,463.45 811.39,463.19 807.41,463.25 C804.73,463.29 802.62,463.84 802.34,464.56 C801.77,466.04 805.65,474.00 806.94,474.00 C807.43,474.00 808.77,472.48 809.92,470.63 ZM 826.01 468.75 C829.23,463.47 828.72,462.17 823.46,462.25 C818.25,462.33 817.44,463.06 819.08,466.23 C820.28,468.55 823.02,472.00 823.67,472.00 C823.87,472.00 824.92,470.54 826.01,468.75 ZM 793.39 468.54 C794.27,467.18 795.00,465.19 795.00,464.12 C795.00,462.47 794.30,462.17 790.50,462.17 C786.59,462.17 786.00,462.44 786.00,464.27 C786.00,466.27 789.55,471.00 791.06,471.00 C791.45,471.00 792.50,469.89 793.39,468.54 ZM 523.67 469.33 C523.30,468.97 523.00,463.32 523.00,456.79 C523.00,442.11 521.52,434.72 513.91,411.39 C510.66,401.43 508.00,393.04 508.00,392.76 C508.00,392.48 511.17,391.23 515.04,389.99 C534.64,383.68 554.87,392.68 564.26,411.87 C567.34,418.18 567.50,419.06 567.50,430.00 C567.50,440.34 567.23,442.07 564.86,447.12 C560.03,457.42 550.94,465.23 540.07,468.41 C534.58,470.02 524.89,470.56 523.67,469.33 ZM 552.01 443.75 C555.85,437.45 553.56,424.60 547.89,420.63 C539.38,414.67 532.30,425.36 536.46,437.88 C538.45,443.87 541.94,447.00 546.65,447.00 C549.39,447.00 550.40,446.38 552.01,443.75 ZM 510.14 465.38 C490.25,455.47 481.75,429.21 491.94,409.15 C494.94,403.26 500.61,396.70 502.25,397.25 C503.50,397.67 513.60,428.50 515.52,437.77 C518.32,451.30 518.69,468.00 516.18,468.00 C515.75,468.00 513.03,466.82 510.14,465.38 ZM 627.97 455.78 C616.23,451.67 607.62,443.83 602.23,432.34 C599.75,427.04 599.50,425.44 599.50,415.00 C599.50,405.27 599.86,402.61 601.83,397.72 C605.10,389.62 613.41,380.91 621.82,376.77 C628.15,373.65 628.98,373.50 640.02,373.50 C651.39,373.50 651.73,373.57 659.23,377.27 C670.76,382.97 677.99,392.19 681.51,405.69 C686.54,425.02 677.03,445.59 659.07,454.23 C653.49,456.91 651.14,457.44 643.50,457.73 C636.11,458.00 633.33,457.65 627.97,455.78 ZM 635.41 435.92 C638.87,431.81 638.95,424.57 635.61,417.40 C633.01,411.82 631.77,411.00 625.94,411.00 C622.99,411.00 621.70,411.55 620.62,413.25 C618.14,417.17 617.76,421.66 619.43,427.23 C622.72,438.17 630.13,442.20 635.41,435.92 ZM 785.47 450.60 C783.68,449.29 783.85,449.11 788.03,447.88 C793.97,446.14 819.97,446.12 825.88,447.86 C829.12,448.81 829.96,449.44 829.13,450.27 C828.29,451.11 826.50,451.09 822.19,450.20 C814.16,448.54 796.49,448.73 791.50,450.53 C789.30,451.32 787.47,451.98 787.44,451.98 C787.41,451.99 786.52,451.37 785.47,450.60 Z" fill="rgb(253,253,253)"/>
</g>
</svg>