<svg xmlns="http://www.w3.org/2000/svg" width="1184" height="864" viewBox="0 0 1184 864">
<g>
<path d="M 560.88 671.25 C559.28,676.89 557.75,678.61 556.10,676.62 C554.93,675.21 555.38,671.92 557.40,667.00 C557.94,665.69 554.52,665.49 530.26,665.39 C499.09,665.27 480.57,663.75 451.95,658.94 C433.07,655.77 409.75,650.22 395.50,645.50 C383.06,641.38 365.83,632.61 358.98,626.90 L 352.79 621.75 L 348.64 624.05 C346.36,625.32 343.77,626.80 342.88,627.33 C341.05,628.45 338.00,627.61 338.00,625.98 C338.00,625.39 339.38,624.14 341.07,623.20 C347.80,619.48 347.95,618.84 341.92,619.50 C337.67,619.96 336.04,619.75 335.12,618.64 C333.55,616.75 335.03,615.77 340.50,615.04 C345.47,614.37 345.10,612.82 339.65,611.50 C334.17,610.17 333.22,607.00 338.30,607.00 C340.20,607.00 343.63,607.66 345.93,608.48 L 350.12 609.95 L 351.81 606.73 C354.57,601.46 364.99,591.72 372.50,587.39 C376.54,585.06 379.41,582.75 379.29,581.92 C378.77,578.33 376.43,571.43 375.52,570.77 C374.96,570.36 363.59,570.02 350.25,570.02 C326.74,570.00 326.00,569.94 326.00,568.02 C326.00,566.10 326.83,566.03 351.21,565.77 L 376.41 565.50 L 377.19 561.73 C378.16,557.07 381.09,551.24 384.48,547.21 C386.86,544.37 386.92,544.11 385.20,543.56 C380.66,542.12 378.11,537.35 370.98,517.00 C353.13,466.03 344.00,438.56 344.00,435.85 C344.00,434.06 344.96,431.95 346.45,430.45 C348.82,428.09 349.41,428.00 362.40,428.00 C369.81,428.00 376.11,427.64 376.38,427.19 C376.66,426.75 375.31,416.99 373.39,405.50 C371.47,394.01 370.04,383.46 370.20,382.05 L 370.50 379.50 L 474.03 378.98 L 474.99 381.24 C475.52,382.48 477.56,394.07 479.54,406.98 C481.51,419.90 483.21,430.53 483.32,430.61 C483.42,430.69 484.49,431.06 485.70,431.43 C488.23,432.21 489.33,430.72 498.02,414.74 C500.94,409.37 504.89,403.15 506.80,400.92 L 510.27 396.86 L 503.19 390.40 C495.43,383.31 489.66,373.62 488.46,365.61 C487.88,361.68 487.46,361.15 484.16,360.12 C482.15,359.50 478.34,357.39 475.70,355.45 C458.99,343.12 457.33,315.56 472.49,302.21 C476.84,298.39 476.87,298.32 475.83,294.23 C474.87,290.44 474.49,290.08 471.15,289.80 C468.75,289.60 467.41,288.95 467.21,287.87 C466.97,286.59 468.35,285.98 473.70,284.98 C494.56,281.10 517.60,269.55 539.15,252.17 C549.50,243.82 552.36,244.08 550.00,253.15 C548.61,258.45 543.72,266.08 538.15,271.63 C535.87,273.91 534.00,276.08 534.00,276.47 C534.00,277.46 541.71,276.07 546.50,274.21 C557.28,270.03 572.73,257.23 585.24,242.13 C586.74,240.31 588.54,239.01 589.23,239.24 C589.97,239.49 591.00,243.30 591.75,248.58 C592.44,253.49 593.90,260.15 594.98,263.38 C597.42,270.64 603.50,278.88 608.35,281.49 C610.36,282.57 612.00,284.04 612.00,284.76 C612.00,286.89 609.39,287.25 606.14,285.57 C598.22,281.48 591.14,269.98 588.38,256.76 C587.56,252.79 586.71,249.37 586.50,249.17 C586.29,248.96 581.93,253.02 576.81,258.21 C562.47,272.72 547.51,281.00 535.64,281.00 C531.85,281.00 529.53,280.44 527.92,279.14 L 525.62 277.28 L 533.56 269.39 C541.08,261.92 546.20,255.00 544.21,255.00 C543.71,255.00 540.36,257.22 536.77,259.94 C520.89,271.96 502.78,281.68 487.97,286.12 C480.61,288.32 480.01,288.70 480.01,291.17 C480.00,296.41 480.63,296.90 485.30,295.27 C488.15,294.27 492.07,293.94 497.50,294.23 C505.62,294.66 510.67,296.48 517.24,301.33 C520.97,304.09 526.58,312.53 528.04,317.57 L 529.21 321.65 L 534.86 321.25 C542.91,320.69 543.00,320.62 543.00,315.57 C543.00,304.81 551.17,292.52 561.80,287.30 C566.89,284.80 568.57,284.50 577.50,284.50 C586.40,284.50 588.12,284.80 593.14,287.27 C599.98,290.63 606.32,297.27 609.66,304.56 L 612.13 309.97 L 615.32 308.63 C617.07,307.89 620.97,306.25 624.00,304.98 C627.03,303.71 629.88,302.34 630.34,301.94 C630.81,301.54 629.09,299.28 626.52,296.91 C623.96,294.55 620.77,290.75 619.43,288.48 C613.75,278.77 610.76,263.42 614.71,264.18 C615.94,264.42 616.88,266.51 618.03,271.56 C618.91,275.43 620.66,280.72 621.91,283.32 C624.63,288.94 631.59,296.17 636.06,298.03 C639.02,299.25 639.66,299.13 644.38,296.47 C648.31,294.25 650.78,293.58 655.00,293.59 C658.03,293.59 661.11,293.80 661.86,294.05 C663.76,294.68 665.75,288.57 667.12,277.87 C669.76,257.35 663.08,235.13 652.60,229.48 C648.88,227.48 647.96,225.34 650.41,224.40 C652.51,223.59 657.27,226.41 661.00,230.65 C665.33,235.59 668.71,243.13 670.64,252.17 C672.80,262.34 672.04,283.13 669.20,291.46 L 667.17 297.43 L 669.20 300.29 C671.76,303.88 674.00,311.20 674.00,315.98 C674.00,323.37 671.11,330.18 665.64,335.64 C660.31,340.97 655.74,342.98 648.93,342.99 C645.47,343.00 645.31,343.16 643.56,348.75 C642.57,351.91 640.58,356.75 639.14,359.50 C637.69,362.25 636.37,364.82 636.19,365.20 C636.01,365.59 638.99,367.48 642.82,369.41 C651.08,373.57 662.77,382.82 668.94,390.09 C675.36,397.64 682.36,409.77 685.80,419.27 C688.68,427.23 689.91,433.47 691.95,450.50 C692.47,454.90 693.63,462.77 694.53,468.00 C695.43,473.23 696.38,479.01 696.65,480.85 C697.09,483.91 697.37,484.15 699.81,483.57 C701.29,483.22 708.50,481.86 715.83,480.55 C723.16,479.25 729.34,478.00 729.55,477.78 C729.77,477.56 729.54,474.71 729.05,471.44 C728.55,468.17 727.84,459.09 727.46,451.25 C726.63,434.03 727.05,432.97 735.76,430.28 C740.52,428.80 745.25,428.50 763.50,428.50 C793.62,428.50 800.00,430.32 800.00,438.90 L 800.00 442.72 L 805.52 443.29 C812.18,443.98 817.11,446.83 820.20,451.80 C823.25,456.71 823.45,468.45 820.59,474.79 C819.54,477.12 818.87,479.14 819.09,479.29 C819.32,479.44 824.28,480.51 830.12,481.67 C842.12,484.04 852.17,488.13 855.05,491.80 C856.72,493.92 857.00,495.89 857.00,505.56 L 857.00 516.85 L 853.25 519.95 C849.84,522.77 833.48,529.00 829.49,529.00 C829.35,529.00 829.22,528.99 829.11,528.98 C828.85,528.97 828.65,528.95 828.49,529.04 C827.85,529.40 828.17,531.51 829.89,542.59 C830.07,543.79 830.27,545.09 830.49,546.50 C831.85,555.30 832.97,563.06 832.98,563.75 C832.99,564.67 835.79,565.00 843.57,565.00 C853.10,565.00 854.11,565.17 853.81,566.75 C853.52,568.25 852.08,568.54 843.61,568.79 L 833.75 569.08 L 834.47 574.29 C834.87,577.15 835.78,583.78 836.50,589.00 C837.22,594.22 839.23,608.77 840.96,621.32 L 841.10 622.29 C843.47,639.44 844.15,644.33 842.06,646.33 C841.19,647.17 839.83,647.51 837.92,648.02 C833.37,649.25 827.54,647.34 826.64,644.34 C826.15,642.67 815.00,572.11 815.00,570.63 C815.00,570.28 807.35,570.00 798.00,570.00 L 781.00 570.00 L 781.00 622.09 L 778.42 624.67 C776.24,626.85 775.22,627.16 771.79,626.70 C764.44,625.71 764.54,626.14 764.14,596.44 L 763.78 569.96 L 745.64 570.23 L 727.50 570.50 L 726.62 576.65 C725.77,582.68 725.82,582.89 729.04,586.90 C731.99,590.57 732.51,590.85 733.96,589.54 C736.09,587.61 742.41,585.00 744.97,585.00 C748.52,585.00 747.25,588.06 743.00,589.73 C737.69,591.82 737.84,593.43 743.27,592.69 C748.56,591.96 750.98,593.11 749.06,595.42 C748.22,596.44 746.11,597.01 743.13,597.02 C736.80,597.04 734.56,598.50 738.53,600.02 C740.17,600.64 742.78,601.40 744.34,601.71 C747.47,602.34 748.86,604.54 747.18,606.22 C746.40,607.00 744.44,606.70 740.20,605.15 C732.89,602.49 731.36,602.47 729.99,605.02 C729.40,606.12 727.00,609.19 724.66,611.82 L 720.40 616.61 L 718.08 631.69 C716.80,639.99 715.38,647.39 714.92,648.14 C714.41,648.96 712.29,649.50 709.56,649.50 C706.01,649.50 704.48,648.93 702.39,646.84 C699.76,644.22 699.74,644.10 700.82,636.88 C701.97,629.13 701.81,628.08 699.77,629.77 C696.94,632.12 673.60,642.09 659.85,646.82 C633.95,655.75 606.58,661.72 582.03,663.81 L 573.91 664.50 L 576.45 667.94 C577.85,669.84 579.00,672.20 579.00,673.19 C579.00,676.40 576.04,675.12 572.79,670.50 C569.36,665.64 567.39,664.64 568.38,668.25 C570.17,674.76 570.26,678.00 568.66,678.00 C566.73,678.00 565.41,675.71 564.48,670.73 C563.56,665.84 562.36,666.01 560.88,671.25 ZM 524.50 549.89 C530.00,550.34 534.87,550.78 535.32,550.86 C536.98,551.15 540.00,548.88 540.00,547.33 C540.00,546.45 536.81,535.78 532.92,523.62 C511.45,456.55 505.93,440.24 504.15,438.63 C503.10,437.69 500.73,436.71 498.87,436.46 C497.02,436.21 463.16,435.06 423.64,433.90 L 351.77 431.78 L 347.73 435.82 L 352.80 450.66 C355.58,458.82 361.31,475.40 365.53,487.50 C369.75,499.60 374.96,514.67 377.11,521.00 C382.12,535.76 383.86,538.61 388.70,539.93 C390.79,540.51 406.67,541.88 424.00,543.00 C465.44,545.65 512.02,548.85 524.50,549.89 ZM 529.18 497.30 C533.46,511.03 535.15,512.79 536.01,504.42 C537.64,488.55 554.95,476.86 579.38,475.14 C587.22,474.59 588.46,474.26 588.22,472.79 C587.84,470.55 591.12,468.93 605.77,464.11 C624.32,458.02 628.44,455.78 631.07,450.36 C633.24,445.88 633.35,442.75 631.76,430.54 C631.60,429.34 632.18,428.44 633.25,428.22 C635.80,427.69 637.24,432.21 637.33,441.00 C637.47,455.49 632.87,459.91 609.61,467.59 C601.85,470.15 595.15,472.56 594.73,472.94 C594.31,473.33 595.80,477.57 598.05,482.38 C600.31,487.18 603.19,495.25 604.47,500.31 L 606.79 509.50 L 611.53 509.81 C617.68,510.21 639.39,505.65 649.00,501.93 C669.06,494.17 681.68,480.44 685.55,462.16 C690.76,437.60 680.12,406.66 659.84,387.37 C651.39,379.33 638.56,371.00 634.64,371.00 C633.85,371.00 628.55,375.61 622.85,381.25 C611.50,392.49 601.77,398.79 589.66,402.74 C564.73,410.88 539.60,410.40 520.09,401.43 L 514.50 398.86 L 510.94 402.84 C508.21,405.90 496.29,426.05 494.17,431.19 C493.98,431.64 495.49,432.00 497.52,432.00 C506.77,432.00 510.15,436.41 516.11,456.25 C517.89,462.16 519.71,467.00 520.17,467.00 C521.35,467.00 521.20,455.53 519.88,444.34 C519.05,437.33 519.05,434.55 519.88,433.72 C523.31,430.29 525.20,441.95 525.20,466.50 L 525.19 484.50 ZM 520.00 661.37 C537.90,661.95 560.37,660.90 562.08,659.39 C564.00,657.70 566.10,657.63 569.42,659.15 C571.32,660.01 574.95,659.99 584.22,659.07 C621.16,655.40 661.12,644.00 692.83,628.08 L 702.57 623.20 L 705.41 600.63 C706.96,588.22 707.99,577.42 707.69,576.63 C707.13,575.18 699.19,571.82 693.35,570.56 C690.31,569.91 690.11,570.07 687.67,575.41 C686.28,578.45 683.78,582.92 682.11,585.34 C680.44,587.76 679.36,590.03 679.71,590.37 C680.05,590.72 681.95,591.01 683.92,591.01 C689.89,591.04 692.14,592.00 691.80,594.38 C691.59,595.88 690.92,596.40 689.50,596.14 C688.40,595.95 684.33,595.72 680.46,595.64 C673.88,595.51 673.14,595.72 669.18,598.85 C663.46,603.39 651.86,609.29 643.15,612.09 C639.22,613.36 636.00,614.66 636.00,614.98 C636.00,615.30 637.35,616.07 639.00,616.69 C641.84,617.77 642.99,620.27 641.16,621.40 C640.69,621.69 637.99,621.04 635.14,619.96 C628.43,617.41 623.84,617.49 606.14,620.45 C598.09,621.79 589.92,623.03 588.00,623.20 L 584.50 623.50 L 588.14 625.76 C591.60,627.91 593.68,631.46 592.06,632.46 C591.64,632.72 588.42,631.42 584.90,629.57 C576.67,625.24 573.52,624.64 563.62,625.46 L 555.50 626.14 L 555.27 632.25 C554.96,640.28 551.77,646.82 546.87,649.44 C543.65,651.17 542.76,651.25 539.06,650.14 C535.86,649.18 534.13,647.78 531.69,644.19 C527.07,637.40 521.04,631.71 515.87,629.28 L 511.37 627.16 L 497.67 632.08 C490.14,634.79 482.36,637.00 480.39,637.00 C474.11,637.00 469.00,632.49 469.00,626.95 C469.00,625.60 468.31,625.00 466.75,625.00 C465.51,624.99 457.98,623.46 450.00,621.59 C436.35,618.38 423.28,614.09 411.24,608.88 C406.30,606.73 405.55,606.67 398.82,607.82 C393.63,608.71 391.36,608.75 390.58,607.96 C389.32,606.68 392.34,604.00 395.02,604.00 C395.93,604.00 396.95,603.72 397.30,603.37 C397.97,602.70 383.07,588.02 381.71,588.01 C377.69,587.97 362.07,599.68 358.00,605.78 C353.95,611.85 354.38,615.74 359.72,621.26 C379.06,641.31 450.12,659.09 520.00,661.37 ZM 554.58 619.90 C555.48,622.56 589.51,619.27 616.50,613.90 C651.70,606.89 669.44,597.30 680.23,579.46 C684.23,572.86 689.00,557.94 689.00,552.05 L 689.00 548.32 L 680.25 545.64 C658.30,538.92 634.44,534.77 605.50,532.65 C601.07,532.33 597.51,533.46 574.50,542.54 C560.20,548.18 545.93,553.32 542.79,553.96 C538.52,554.83 533.23,554.85 521.79,554.04 C488.02,551.63 462.32,550.01 459.00,550.07 C454.93,550.15 455.02,550.19 467.90,555.00 C477.26,558.50 491.92,564.98 504.21,571.04 C512.02,574.90 512.51,575.01 517.73,574.04 C520.79,573.48 523.88,572.21 524.82,571.13 C525.75,570.08 531.22,567.42 537.00,565.24 C542.78,563.05 556.50,557.77 567.50,553.49 C595.80,542.51 605.00,540.06 605.00,543.52 C605.00,545.22 603.92,545.72 592.50,549.30 C585.81,551.40 530.00,572.67 529.26,573.40 C529.13,573.53 530.06,576.30 531.32,579.55 C533.54,585.28 533.74,585.49 538.05,586.22 C547.25,587.79 550.42,592.46 552.57,607.62 C553.42,613.60 554.33,619.13 554.58,619.90 ZM 540.73 403.03 C548.43,404.43 569.49,403.37 578.50,401.12 C593.71,397.32 606.85,390.55 617.26,381.15 C626.31,372.97 636.95,355.87 640.04,344.54 L 641.69 338.50 L 648.60 337.98 C658.85,337.21 663.09,334.44 666.92,325.98 C669.36,320.62 669.64,311.77 667.54,306.74 C666.73,304.82 664.61,302.01 662.83,300.51 C660.00,298.13 658.94,297.84 654.37,298.22 C648.26,298.73 643.00,302.18 641.01,306.99 C639.54,310.52 636.89,310.70 636.04,307.32 C635.51,305.20 635.28,305.24 624.25,309.74 L 613.00 314.33 L 613.00 320.01 C613.00,329.75 608.43,339.98 601.01,346.81 C593.97,353.30 580.35,356.48 570.12,354.03 C558.79,351.31 547.93,341.24 544.47,330.25 C542.82,325.02 542.80,325.00 538.66,325.01 C530.88,325.04 530.32,325.49 529.72,332.19 C528.24,348.50 515.77,360.91 499.09,362.65 C491.76,363.41 491.55,364.17 496.05,373.60 C502.83,387.82 520.26,399.30 540.73,403.03 ZM 474.82 621.95 C481.79,622.96 487.94,623.69 488.49,623.57 C489.52,623.33 490.04,621.98 494.49,608.00 C495.98,603.33 499.70,594.66 502.76,588.74 C505.81,582.82 508.13,577.82 507.91,577.63 C506.47,576.38 473.48,561.94 464.00,558.41 C453.47,554.48 452.51,553.91 452.67,551.67 C452.84,549.26 452.70,549.22 442.17,548.54 C436.30,548.16 423.20,547.24 413.06,546.50 C392.10,544.97 391.26,545.13 386.70,551.72 C374.99,568.60 381.61,586.92 404.16,600.09 C419.60,609.11 448.98,618.20 474.82,621.95 ZM 446.50 430.30 C461.86,430.98 477.90,430.96 478.29,430.25 C478.68,429.52 472.37,386.72 471.50,384.25 C471.16,383.27 460.46,383.00 422.53,383.00 C393.58,383.00 374.00,383.37 374.00,383.92 C374.00,387.09 381.24,426.64 381.95,427.35 C382.43,427.83 395.57,428.62 411.16,429.10 C426.75,429.59 442.65,430.12 446.50,430.30 ZM 754.00 498.67 C766.42,501.09 782.07,498.78 787.05,493.80 C792.37,488.48 796.00,469.77 796.00,447.64 C796.00,440.55 795.83,439.86 794.25,440.52 C793.29,440.93 789.80,441.92 786.50,442.73 C778.53,444.69 746.17,443.93 738.00,441.59 C734.97,440.73 732.32,440.02 732.11,440.01 C731.89,440.01 731.98,446.86 732.30,455.25 C732.93,471.75 735.42,484.71 739.12,490.70 C741.73,494.91 745.74,497.06 754.00,498.67 ZM 743.00 513.88 C758.59,515.13 785.17,515.15 799.70,513.92 C830.80,511.30 854.82,503.31 852.61,496.34 C851.23,491.99 834.78,485.85 820.61,484.40 C815.40,483.87 813.94,484.10 810.76,485.98 C808.57,487.27 804.56,488.41 801.13,488.72 C795.68,489.22 795.13,489.50 793.69,492.53 C791.48,497.16 785.90,501.05 779.23,502.62 C771.47,504.45 758.41,504.34 749.81,502.39 C743.84,501.03 742.05,500.10 738.43,496.48 C735.89,493.94 733.62,490.48 732.88,487.99 C732.19,485.68 730.97,483.54 730.18,483.24 C728.12,482.45 705.21,486.57 697.81,489.06 C690.40,491.56 686.00,494.48 686.00,496.89 C686.00,504.31 709.02,511.17 743.00,513.88 ZM 573.22 349.92 C579.37,351.11 584.63,350.24 591.69,346.88 C609.57,338.37 613.72,313.70 599.83,298.50 C593.52,291.60 586.93,288.70 577.50,288.69 C565.47,288.67 555.42,294.90 550.39,305.50 C547.50,311.59 547.13,323.08 549.58,330.27 C552.64,339.26 563.12,347.97 573.22,349.92 ZM 683.00 541.89 C686.03,542.96 688.93,543.74 689.45,543.61 C690.77,543.28 691.85,538.73 692.61,530.34 L 693.26 523.19 L 689.88 521.48 C688.02,520.54 685.26,518.61 683.75,517.20 C681.12,514.73 681.00,514.22 681.00,504.95 C681.00,493.89 682.15,491.50 689.15,487.93 C691.95,486.49 692.97,485.41 692.63,484.20 C692.37,483.27 691.87,479.56 691.52,475.97 C690.63,466.82 689.60,465.68 687.62,471.64 C685.39,478.35 678.83,488.10 673.20,493.06 C661.04,503.77 640.67,511.19 614.19,514.53 C609.24,515.16 608.98,515.32 610.44,516.93 C612.47,519.18 612.43,523.86 610.36,526.15 C608.26,528.47 608.32,528.49 624.00,529.98 C644.31,531.90 668.87,536.86 683.00,541.89 ZM 538.80 644.95 C544.06,648.01 549.44,643.33 550.51,634.76 C551.28,628.58 547.51,600.01 545.36,595.78 C543.50,592.11 541.86,591.38 531.32,589.56 C526.34,588.69 519.65,587.08 516.45,585.98 C516.02,585.83 515.62,585.69 515.25,585.56 C513.17,584.83 511.96,584.40 510.98,584.71 C509.42,585.18 508.41,587.48 505.43,593.27 C501.72,600.49 495.84,616.93 496.55,618.09 C496.79,618.47 500.25,619.57 504.24,620.53 C519.27,624.15 526.13,628.32 532.87,637.93 C535.20,641.24 537.86,644.40 538.80,644.95 ZM 492.53 357.05 C493.64,358.85 503.85,357.63 508.79,355.10 C519.04,349.88 524.21,341.94 524.81,330.50 C525.76,312.46 513.26,298.81 495.65,298.65 C489.91,298.60 482.00,300.23 482.00,301.46 C482.00,301.57 483.97,308.16 486.39,316.09 C491.51,332.92 493.34,343.40 492.44,350.65 C492.08,353.51 492.12,356.39 492.53,357.05 ZM 737.50 528.50 C753.90,530.40 799.47,529.85 814.00,527.58 C832.85,524.63 850.83,518.49 852.38,514.46 C853.14,512.47 853.21,506.00 852.46,506.00 C852.16,506.00 850.25,506.85 848.21,507.89 C842.43,510.83 831.57,513.91 819.00,516.18 C810.01,517.80 801.82,518.36 781.44,518.74 C738.69,519.54 706.00,515.63 690.79,507.89 C685.70,505.30 685.39,505.43 685.83,510.02 C686.16,513.52 686.76,514.36 690.44,516.52 C699.40,521.77 716.07,526.01 737.50,528.50 ZM 559.99 515.49 C561.66,517.51 563.81,516.20 568.98,510.02 C571.30,507.25 574.31,504.71 575.68,504.37 C577.04,504.02 581.40,504.30 585.36,504.98 C591.54,506.03 593.09,505.99 596.28,504.66 C598.33,503.80 600.00,502.48 600.00,501.73 C600.00,499.85 595.68,487.40 593.38,482.62 L 591.50 478.73 L 582.50 479.33 C571.92,480.04 560.74,482.80 555.34,486.02 C546.51,491.29 539.55,500.35 540.19,505.75 C540.65,509.63 542.66,509.57 543.96,505.63 C545.66,500.46 550.69,494.00 553.01,494.00 C555.44,494.00 555.71,497.17 553.43,499.06 C551.16,500.94 548.00,507.51 548.00,510.34 C548.00,513.09 550.36,515.51 552.04,514.48 C552.66,514.09 554.06,511.69 555.15,509.14 C557.49,503.66 561.64,499.00 564.19,499.00 C566.75,499.00 566.45,500.56 563.06,504.81 C559.52,509.27 558.31,513.46 559.99,515.49 ZM 831.01 641.75 C832.12,644.39 837.69,644.97 838.63,642.53 C838.93,641.73 838.44,635.54 837.53,628.78 C833.33,597.67 823.82,531.48 823.49,531.16 C823.29,530.96 820.92,531.10 818.22,531.47 L 813.32 532.14 L 814.16 537.32 C814.62,540.17 818.39,564.33 822.53,591.00 C826.67,617.67 830.49,640.51 831.01,641.75 ZM 728.38 563.25 C727.90,564.87 729.17,565.00 745.43,565.00 L 763.00 565.00 L 763.00 535.12 L 758.75 534.59 C750.57,533.57 733.00,532.81 733.00,533.48 C733.00,534.96 728.87,561.62 728.38,563.25 ZM 706.03 644.04 C708.13,645.37 710.99,645.21 711.49,643.75 C711.73,643.06 713.10,634.85 714.53,625.50 C719.95,590.15 727.98,538.38 728.51,535.32 C729.06,532.19 728.98,532.12 724.49,531.45 C721.97,531.07 719.67,530.99 719.39,531.28 C718.65,532.02 715.98,551.40 709.90,600.31 C705.29,637.32 704.77,643.24 706.03,644.04 ZM 781.00 535.20 L 781.00 565.00 L 796.94 565.00 C805.71,565.00 813.12,564.62 813.41,564.15 C813.85,563.43 810.98,542.63 809.41,535.15 C809.28,534.53 809.31,534.06 809.10,533.73 C808.54,532.82 806.17,533.02 793.46,534.13 C791.82,534.27 790.00,534.43 788.00,534.60 ZM 542.47 538.75 C542.73,539.44 543.37,540.00 543.91,540.00 C545.95,540.00 597.02,520.38 598.30,519.10 C598.74,518.66 592.23,518.05 583.83,517.75 C569.87,517.26 568.34,517.37 566.14,519.11 C563.32,521.32 560.23,521.49 557.70,519.57 C556.59,518.73 554.47,518.39 552.20,518.69 C549.38,519.05 547.98,518.67 546.29,517.08 C544.72,515.60 542.77,515.00 539.54,515.00 C537.04,515.00 535.00,515.36 535.00,515.80 C535.00,516.46 540.76,534.14 542.47,538.75 ZM 485.22 217.62 C480.66,220.58 476.78,223.00 476.59,223.00 C476.40,223.00 475.75,222.40 475.13,221.66 C473.62,219.84 476.16,217.65 488.00,210.54 C508.04,198.50 526.43,190.89 545.31,186.81 C553.52,185.04 558.70,184.62 572.00,184.64 C590.52,184.66 598.54,186.22 610.02,192.01 C617.14,195.60 626.00,203.40 626.00,206.08 C626.00,209.59 623.96,209.05 619.20,204.30 C613.43,198.53 605.01,193.94 595.50,191.38 C589.86,189.86 585.01,189.50 570.50,189.52 C554.14,189.53 551.54,189.78 541.91,192.28 C522.05,197.43 503.64,205.66 485.22,217.62 ZM 770.86 621.94 C771.76,622.45 773.15,622.46 774.06,621.97 C775.43,621.23 775.78,618.02 776.34,600.80 C776.70,589.64 777.00,570.26 777.00,557.75 L 777.00 535.00 L 766.74 535.00 L 767.35 545.75 C767.69,551.66 768.25,571.02 768.61,588.78 C769.18,616.79 769.48,621.17 770.86,621.94 ZM 482.50 354.35 C487.72,357.08 488.00,356.75 487.99,347.75 C487.97,338.14 484.84,324.20 478.41,305.08 C477.64,302.80 471.46,309.51 468.91,315.38 C465.87,322.40 465.87,332.59 468.91,339.60 C471.23,344.96 477.43,351.69 482.50,354.35 ZM 692.56 557.75 L 691.95 566.00 L 700.51 566.00 C706.50,566.00 709.21,565.62 709.55,564.73 C710.59,562.02 714.75,530.47 714.14,529.89 C713.79,529.55 710.21,528.45 706.19,527.43 C697.53,525.24 697.52,525.24 696.71,534.88 C696.40,538.56 695.48,543.36 694.66,545.54 C693.84,547.72 692.89,553.21 692.56,557.75 ZM 447.73 499.73 C444.18,503.27 436.78,503.91 432.24,501.06 C423.30,495.45 422.57,482.09 431.04,479.13 C432.76,478.54 433.86,477.59 433.51,477.02 C432.25,474.98 434.07,472.00 436.57,472.00 C438.60,472.00 439.00,472.49 439.00,474.99 C439.00,477.44 439.61,478.23 442.44,479.41 C449.52,482.37 452.74,494.72 447.73,499.73 ZM 609.07 646.58 C599.48,649.01 591.25,651.00 590.79,651.00 C589.74,651.00 588.55,648.11 589.30,647.37 C589.59,647.07 595.31,645.52 602.00,643.92 C627.03,637.93 667.95,624.27 685.89,615.91 C694.93,611.70 698.00,611.10 698.00,613.56 C698.00,617.82 645.20,637.42 609.07,646.58 ZM 458.80 289.39 C458.42,292.07 454.44,292.46 447.50,290.50 C444.75,289.72 442.18,289.07 441.78,289.04 C440.33,288.95 433.85,282.61 432.45,279.90 C429.31,273.84 432.18,264.25 438.60,259.35 C442.92,256.06 442.89,255.00 438.47,255.00 C434.07,255.00 428.17,252.61 427.36,250.50 C426.38,247.95 427.44,247.78 433.44,249.53 C437.81,250.80 441.03,251.01 447.55,250.47 C455.64,249.79 456.00,249.85 456.00,251.82 C456.00,253.32 454.36,254.76 450.00,257.08 C446.70,258.84 442.20,262.23 440.00,264.62 C436.63,268.28 436.00,269.63 436.00,273.26 C436.00,275.62 436.70,278.56 437.57,279.79 C439.93,283.17 446.66,286.16 453.23,286.75 C458.49,287.23 459.07,287.51 458.80,289.39 ZM 544.00 547.63 C544.00,549.00 544.34,549.91 544.75,549.66 C545.16,549.41 558.15,544.25 573.61,538.20 C605.48,525.72 608.00,524.56 608.00,522.37 C608.00,520.14 606.55,520.60 578.64,531.65 C565.36,536.90 552.14,542.09 549.25,543.17 C544.85,544.82 544.00,545.55 544.00,547.63 ZM 797.39 482.42 C796.91,483.68 797.51,484.00 800.33,484.00 C810.84,484.00 818.32,475.45 818.36,463.42 C818.39,453.76 814.76,449.30 805.50,447.56 C803.85,447.26 801.87,447.41 801.10,447.90 C798.74,449.42 800.53,451.46 805.34,452.75 C810.73,454.19 813.00,457.54 813.00,464.05 C813.00,471.95 806.90,480.00 800.92,480.00 C799.32,480.00 798.00,480.19 798.00,480.42 C798.00,480.65 797.73,481.55 797.39,482.42 ZM 507.80 648.81 C507.36,651.17 503.12,651.20 487.00,648.95 C470.78,646.70 450.03,643.14 448.85,642.41 C448.38,642.12 448.00,641.23 448.00,640.44 C448.00,638.54 450.46,638.61 462.50,640.89 C468.00,641.93 479.02,643.52 487.00,644.44 C504.46,646.44 507.52,646.79 507.85,647.93 C507.93,648.17 507.87,648.45 507.81,648.78 ZM 574.00 335.00 C568.86,340.14 562.00,334.05 562.00,324.35 C562.00,318.10 563.82,315.75 568.34,316.20 C574.94,316.84 578.92,330.08 574.00,335.00 ZM 434.11 497.60 C438.57,500.07 443.89,498.94 445.96,495.08 C447.20,492.75 445.61,487.48 442.69,484.25 C439.83,481.09 432.76,481.07 430.56,484.22 C427.61,488.42 429.35,494.97 434.11,497.60 ZM 513.47 339.05 C510.90,344.03 505.74,342.33 502.12,335.32 C500.64,332.43 500.72,327.11 502.29,324.00 C503.27,322.06 504.33,321.50 506.99,321.50 C509.77,321.50 510.85,322.14 512.71,324.90 C515.40,328.89 515.71,334.72 513.47,339.05 ZM 425.00 635.22 C425.00,637.70 421.69,637.44 409.00,634.00 C391.04,629.12 376.55,623.71 376.18,621.75 C375.69,619.13 378.31,619.52 390.58,623.88 C396.59,626.01 406.79,629.04 413.25,630.60 C422.78,632.91 425.00,633.78 425.00,635.22 ZM 441.07 399.96 C439.12,401.01 390.76,401.35 388.25,400.34 C387.56,400.06 387.00,399.20 387.00,398.42 C387.00,397.23 391.51,397.00 415.00,397.00 C442.16,397.00 445.83,397.42 441.07,399.96 ZM 766.57 418.78 C765.63,421.75 762.18,423.64 761.41,421.62 C761.10,420.82 761.33,419.25 761.92,418.14 C763.77,414.68 763.12,410.90 759.37,403.31 C756.33,397.14 755.83,395.23 756.26,391.42 C756.57,388.60 757.64,385.95 759.06,384.44 C763.54,379.67 766.08,382.33 762.32,387.86 C761.05,389.74 760.00,391.97 760.00,392.81 C760.00,393.66 761.64,397.66 763.64,401.71 C767.22,408.97 768.09,414.00 766.57,418.78 ZM 738.00 437.34 C738.83,437.62 739.59,437.88 739.70,437.92 C739.81,437.96 742.49,437.33 745.66,436.50 C753.38,434.49 774.63,434.49 782.35,436.50 C791.05,438.77 797.39,436.43 789.25,433.96 C783.47,432.20 754.69,431.55 744.84,432.95 C735.94,434.21 732.29,435.49 735.03,436.37 C735.84,436.63 737.17,437.07 738.00,437.34 ZM 556.56 373.52 C548.78,378.08 539.36,377.48 532.88,372.01 C530.11,369.68 529.73,368.93 530.78,367.85 C531.84,366.76 532.92,367.01 536.93,369.27 C545.03,373.82 553.17,372.44 558.62,365.60 C561.55,361.94 566.00,360.62 566.00,363.42 C566.00,365.66 561.19,370.80 556.56,373.52 ZM 458.42 418.39 C456.53,419.12 419.05,419.07 417.25,418.34 C416.56,418.06 416.00,417.20 416.00,416.42 C416.00,415.24 419.69,415.00 438.00,415.00 C456.14,415.00 460.00,415.24 460.00,416.39 C460.00,417.16 459.29,418.06 458.42,418.39 ZM 463.14 236.42 C461.82,237.23 451.83,237.90 449.00,237.36 C442.86,236.20 436.55,233.54 433.41,230.79 C427.41,225.52 430.05,222.65 436.43,227.51 C441.94,231.72 448.26,233.34 456.62,232.71 C463.35,232.20 464.00,232.32 464.00,234.02 C464.00,235.04 463.61,236.12 463.14,236.42 ZM 799.60 475.16 C800.52,476.64 802.08,476.07 804.96,473.20 C810.77,467.38 809.60,457.00 803.13,457.00 L 800.30 457.00 L 799.69 465.66 C799.35,470.42 799.31,474.69 799.60,475.16 ZM 769.06 481.41 C765.74,486.78 764.64,487.31 762.21,484.72 C759.42,481.76 756.94,475.71 757.89,474.18 C758.30,473.52 760.18,473.00 762.07,473.04 C763.96,473.08 766.62,472.98 768.00,472.81 C770.08,472.55 770.55,472.97 770.82,475.27 C771.00,476.83 770.23,479.51 769.06,481.41 ZM 540.50 352.50 C540.50,356.07 534.28,355.40 530.25,351.39 C528.17,349.32 528.77,344.56 531.43,342.07 C532.78,340.79 534.15,338.06 534.52,335.89 C535.03,332.85 535.62,332.00 537.22,332.00 C539.05,332.00 539.21,332.47 538.74,336.58 C538.39,339.74 537.38,342.04 535.46,344.04 C533.20,346.40 532.92,347.20 533.92,348.40 C534.59,349.22 536.35,350.02 537.82,350.19 C539.73,350.41 540.50,351.08 540.50,352.50 ZM 428.33 408.07 C427.71,408.69 422.04,409.24 414.88,409.37 C399.22,409.66 396.78,409.36 397.20,407.18 C397.48,405.71 399.41,405.46 412.43,405.22 C427.14,404.95 430.80,405.60 428.33,408.07 ZM 591.50 513.89 C597.55,514.24 602.82,514.39 603.21,514.23 C603.60,514.06 603.40,512.71 602.76,511.21 C602.12,509.72 601.56,508.41 601.51,508.30 C601.46,508.19 599.13,508.77 596.32,509.59 C591.80,510.92 590.48,510.92 584.86,509.61 C579.28,508.31 578.22,508.31 576.25,509.59 C573.08,511.64 573.46,512.98 577.25,513.13 C579.04,513.20 585.45,513.54 591.50,513.89 ZM 767.41 461.92 C765.99,463.62 764.42,465.00 763.93,465.00 C762.26,465.00 757.84,457.19 758.17,454.83 C758.47,452.72 759.04,452.49 764.26,452.35 C767.42,452.27 770.28,452.64 770.60,453.16 C771.58,454.75 770.15,458.67 767.41,461.92 ZM 747.75 478.03 C746.51,479.85 744.99,481.51 744.37,481.71 C742.56,482.31 738.00,476.11 738.00,473.05 C738.00,470.41 738.29,470.23 743.25,469.74 C746.14,469.45 748.84,469.42 749.25,469.67 C750.72,470.55 749.96,474.76 747.75,478.03 ZM 783.04 414.91 C780.96,419.92 777.81,418.95 778.68,413.58 C779.03,411.40 778.52,408.97 777.10,406.20 C773.80,399.73 774.48,395.00 778.71,395.00 C780.71,395.00 781.06,395.35 780.46,396.75 C779.30,399.45 779.56,401.08 782.03,406.66 C784.05,411.21 784.17,412.18 783.04,414.91 ZM 477.01 631.71 C477.98,632.20 478.55,632.56 479.17,632.71 C480.44,633.03 481.90,632.54 487.33,630.71 C487.99,630.49 488.71,630.25 489.50,629.98 C502.28,625.70 503.55,624.65 497.43,623.44 C495.03,622.97 494.32,623.28 493.50,625.18 C492.54,627.40 492.09,627.49 483.17,627.22 C474.73,626.96 473.87,627.10 474.18,628.69 C474.37,629.66 475.64,631.02 477.01,631.71 ZM 749.81 416.27 C749.59,419.24 749.01,420.58 747.84,420.80 C745.65,421.21 744.80,419.66 745.56,416.63 C745.98,414.92 745.35,412.75 743.52,409.63 C740.14,403.85 740.30,398.67 743.88,398.16 C746.02,397.86 746.21,398.12 745.71,400.66 C745.32,402.63 745.90,404.80 747.63,407.77 C749.44,410.89 750.03,413.19 749.81,416.27 ZM 746.92 458.63 C744.41,462.70 742.82,462.86 740.05,459.34 C735.66,453.76 736.46,448.52 741.35,450.75 C743.04,451.52 744.07,451.53 744.81,450.79 C746.40,449.20 749.00,450.64 749.00,453.10 C749.00,454.29 748.06,456.78 746.92,458.63 ZM 788.71 477.10 C785.36,482.07 783.44,481.96 780.87,476.68 C777.87,470.49 778.61,469.28 785.42,469.21 C790.57,469.17 791.00,469.34 791.00,471.43 C791.00,472.68 789.97,475.23 788.71,477.10 ZM 790.04 455.90 C789.38,457.50 787.79,459.79 786.51,460.99 L 784.19 463.17 L 781.59 459.35 C780.17,457.25 779.00,454.50 779.00,453.24 C779.00,451.28 779.48,450.96 782.25,451.10 C784.04,451.19 786.22,450.96 787.09,450.58 C789.78,449.44 791.46,452.47 790.04,455.90 ZM 419.81 424.75 C419.51,426.29 417.93,426.53 406.38,426.78 C396.25,426.99 393.03,426.75 392.15,425.69 C391.53,424.93 391.31,424.02 391.68,423.66 C392.04,423.30 398.59,423.00 406.24,423.00 C418.95,423.00 420.12,423.15 419.81,424.75 ZM 639.88 209.23 C637.92,212.88 636.83,211.44 635.51,203.50 C635.15,201.30 633.76,197.53 632.42,195.12 C629.43,189.72 629.40,188.77 632.23,189.18 C636.52,189.79 642.24,204.81 639.88,209.23 ZM 648.73 216.26 C645.39,218.45 645.27,218.44 644.48,215.93 C643.35,212.39 650.09,209.02 658.32,209.01 C661.71,209.00 662.10,209.25 661.82,211.25 C661.55,213.16 660.74,213.58 656.44,214.01 C653.66,214.29 650.19,215.30 648.73,216.26 ZM 722.38 604.50 C721.88,608.35 721.93,608.42 723.54,606.50 C724.46,605.40 726.04,602.73 727.03,600.56 C728.57,597.24 728.66,596.15 727.63,593.63 C725.70,588.89 724.33,589.42 723.59,595.21 C723.21,598.12 722.67,602.30 722.38,604.50 ZM 408.72 416.33 C408.48,417.07 405.15,417.61 399.67,417.79 C392.74,418.02 391.00,417.79 391.00,416.67 C391.00,415.65 392.97,415.06 398.02,414.57 C405.53,413.83 409.35,414.46 408.72,416.33 ZM 519.50 582.21 C527.18,584.66 528.19,584.28 526.39,579.58 C525.71,577.79 517.58,577.35 515.03,578.96 C513.19,580.12 513.38,580.26 519.50,582.21 ZM 384.66 389.43 C383.92,391.36 382.61,391.44 381.11,389.63 C380.25,388.59 380.35,387.96 381.53,386.98 C383.44,385.39 385.57,387.06 384.66,389.43 ZM 392.82 388.67 C392.24,391.68 389.00,391.40 389.00,388.33 C389.00,387.60 389.93,387.00 391.07,387.00 C392.47,387.00 393.04,387.54 392.82,388.67 ZM 400.82 388.67 C400.24,391.68 397.00,391.40 397.00,388.33 C397.00,387.60 397.93,387.00 399.07,387.00 C400.47,387.00 401.04,387.54 400.82,388.67 ZM 706.50 570.00 C706.84,570.55 707.54,571.00 708.06,571.00 C708.58,571.00 709.00,570.55 709.00,570.00 C709.00,569.45 708.30,569.00 707.44,569.00 C706.58,569.00 706.16,569.45 706.50,570.00 Z" fill="rgb(8,8,7)"/>
<path d="M 706.50 570.00 C706.16,569.45 706.58,569.00 707.44,569.00 C708.30,569.00 709.00,569.45 709.00,570.00 C709.00,570.55 708.58,571.00 708.06,571.00 C707.54,571.00 706.84,570.55 706.50,570.00 Z" fill="rgb(75,75,74)"/>
<path d="M 0.00 432.00 L 0.00 0.00 L 592.00 0.00 L 1184.00 0.00 L 1184.00 432.00 L 1184.00 864.00 L 592.00 864.00 L 0.00 864.00 L 0.00 432.00 ZM 560.88 671.25 C562.36,666.01 563.56,665.84 564.48,670.73 C565.41,675.71 566.73,678.00 568.66,678.00 C570.26,678.00 570.17,674.76 568.38,668.25 C567.39,664.64 569.36,665.64 572.79,670.50 C576.04,675.12 579.00,676.40 579.00,673.19 C579.00,672.20 577.85,669.84 576.45,667.94 L 573.91 664.50 L 582.03 663.81 C606.58,661.72 633.95,655.75 659.85,646.82 C673.60,642.09 696.94,632.12 699.77,629.77 C701.81,628.08 701.97,629.13 700.82,636.88 C699.74,644.10 699.76,644.22 702.39,646.84 C704.48,648.93 706.01,649.50 709.56,649.50 C712.29,649.50 714.41,648.96 714.92,648.14 C715.38,647.39 716.80,639.99 718.08,631.69 L 720.40 616.61 L 724.66 611.82 C727.00,609.19 729.40,606.12 729.99,605.02 C731.36,602.47 732.89,602.49 740.20,605.15 C744.44,606.70 746.40,607.00 747.18,606.22 C748.86,604.54 747.47,602.34 744.34,601.71 C742.78,601.40 740.17,600.64 738.53,600.02 C734.56,598.50 736.80,597.04 743.13,597.02 C746.11,597.01 748.22,596.44 749.06,595.42 C750.98,593.11 748.56,591.96 743.27,592.69 C737.84,593.43 737.69,591.82 743.00,589.73 C747.25,588.06 748.52,585.00 744.97,585.00 C742.41,585.00 736.09,587.61 733.96,589.54 C732.51,590.85 731.99,590.57 729.04,586.90 C725.82,582.89 725.77,582.68 726.62,576.65 L 727.50 570.50 L 745.64 570.23 L 763.78 569.96 L 764.14 596.44 C764.54,626.14 764.44,625.71 771.79,626.70 C775.22,627.16 776.24,626.85 778.42,624.67 L 781.00 622.09 L 781.00 596.05 L 781.00 570.00 L 798.00 570.00 C807.35,570.00 815.00,570.28 815.00,570.63 C815.00,572.11 826.15,642.67 826.64,644.34 C827.54,647.34 833.37,649.25 837.92,648.02 C844.50,646.25 844.46,646.60 840.96,621.32 C839.23,608.77 837.22,594.22 836.50,589.00 C835.78,583.78 834.87,577.15 834.47,574.29 L 833.75 569.08 L 843.61 568.79 C852.08,568.54 853.52,568.25 853.81,566.75 C854.11,565.17 853.10,565.00 843.57,565.00 C835.79,565.00 832.99,564.67 832.98,563.75 C832.97,563.06 831.85,555.30 830.49,546.50 C827.56,527.48 827.65,529.00 829.49,529.00 C833.48,529.00 849.84,522.77 853.25,519.95 L 857.00 516.85 L 857.00 505.56 C857.00,495.89 856.72,493.92 855.05,491.80 C852.17,488.13 842.12,484.04 830.12,481.67 C824.28,480.51 819.32,479.44 819.09,479.29 C818.87,479.14 819.54,477.12 820.59,474.79 C823.45,468.45 823.25,456.71 820.20,451.80 C817.11,446.83 812.18,443.98 805.52,443.29 L 800.00 442.72 L 800.00 438.90 C800.00,430.32 793.62,428.50 763.50,428.50 C745.25,428.50 740.52,428.80 735.76,430.28 C727.05,432.97 726.63,434.03 727.46,451.25 C727.84,459.09 728.55,468.17 729.05,471.44 C729.54,474.71 729.77,477.56 729.55,477.78 C729.34,478.00 723.16,479.25 715.83,480.55 C708.50,481.86 701.29,483.22 699.81,483.57 C697.37,484.15 697.09,483.91 696.65,480.85 C696.38,479.01 695.43,473.23 694.53,468.00 C693.63,462.77 692.47,454.90 691.95,450.50 C689.91,433.47 688.68,427.23 685.80,419.27 C682.36,409.77 675.36,397.64 668.94,390.09 C662.77,382.82 651.08,373.57 642.82,369.41 C638.99,367.48 636.01,365.59 636.19,365.20 C636.37,364.82 637.69,362.25 639.14,359.50 C640.58,356.75 642.57,351.91 643.56,348.75 C645.31,343.16 645.47,343.00 648.93,342.99 C655.74,342.98 660.31,340.97 665.64,335.64 C671.11,330.18 674.00,323.37 674.00,315.98 C674.00,311.20 671.76,303.88 669.20,300.29 L 667.17 297.43 L 669.20 291.46 C672.04,283.13 672.80,262.34 670.64,252.17 C668.71,243.13 665.33,235.59 661.00,230.65 C657.27,226.41 652.51,223.59 650.41,224.40 C647.96,225.34 648.88,227.48 652.60,229.48 C663.08,235.13 669.76,257.35 667.12,277.87 C665.75,288.57 663.76,294.68 661.86,294.05 C661.11,293.80 658.03,293.59 655.00,293.59 C650.78,293.58 648.31,294.25 644.38,296.47 C639.66,299.13 639.02,299.25 636.06,298.03 C631.59,296.17 624.63,288.94 621.91,283.32 C620.66,280.72 618.91,275.43 618.03,271.56 C616.88,266.51 615.94,264.42 614.71,264.18 C610.76,263.42 613.75,278.77 619.43,288.48 C620.77,290.75 623.96,294.55 626.52,296.91 C629.09,299.28 630.81,301.54 630.34,301.94 C629.88,302.34 627.03,303.71 624.00,304.98 C620.97,306.25 617.07,307.89 615.32,308.63 L 612.13 309.97 L 609.66 304.56 C606.32,297.27 599.98,290.63 593.14,287.27 C588.12,284.80 586.40,284.50 577.50,284.50 C568.57,284.50 566.89,284.80 561.80,287.30 C551.17,292.52 543.00,304.81 543.00,315.57 C543.00,320.62 542.91,320.69 534.86,321.25 L 529.21 321.65 L 528.04 317.57 C526.58,312.53 520.97,304.09 517.24,301.33 C510.67,296.48 505.62,294.66 497.50,294.23 C492.07,293.94 488.15,294.27 485.30,295.27 C480.63,296.90 480.00,296.41 480.01,291.17 C480.01,288.70 480.61,288.32 487.97,286.12 C502.78,281.68 520.89,271.96 536.77,259.94 C540.36,257.22 543.71,255.00 544.21,255.00 C546.20,255.00 541.08,261.92 533.56,269.39 L 525.62 277.28 L 527.92 279.14 C529.53,280.44 531.85,281.00 535.64,281.00 C547.51,281.00 562.47,272.72 576.81,258.21 C581.93,253.02 586.29,248.96 586.50,249.17 C586.71,249.37 587.56,252.79 588.38,256.76 C591.14,269.98 598.22,281.48 606.14,285.57 C609.39,287.25 612.00,286.89 612.00,284.76 C612.00,284.04 610.36,282.57 608.35,281.49 C603.50,278.88 597.42,270.64 594.98,263.38 C593.90,260.15 592.44,253.49 591.75,248.58 C591.00,243.30 589.97,239.49 589.23,239.24 C588.54,239.01 586.74,240.31 585.24,242.13 C572.73,257.23 557.28,270.03 546.50,274.21 C541.71,276.07 534.00,277.46 534.00,276.47 C534.00,276.08 535.87,273.91 538.15,271.63 C543.72,266.08 548.61,258.45 550.00,253.15 C552.36,244.08 549.50,243.82 539.15,252.17 C517.60,269.55 494.56,281.10 473.70,284.98 C468.35,285.98 466.97,286.59 467.21,287.87 C467.41,288.95 468.75,289.60 471.15,289.80 C474.49,290.08 474.87,290.44 475.83,294.23 C476.87,298.32 476.84,298.39 472.49,302.21 C457.33,315.56 458.99,343.12 475.70,355.45 C478.34,357.39 482.15,359.50 484.16,360.12 C487.46,361.15 487.88,361.68 488.46,365.61 C489.66,373.62 495.43,383.31 503.19,390.40 L 510.27 396.86 L 506.80 400.92 C504.89,403.15 500.94,409.37 498.02,414.74 C489.33,430.72 488.23,432.21 485.70,431.43 C484.49,431.06 483.42,430.69 483.32,430.61 C483.21,430.53 481.51,419.90 479.54,406.98 C477.56,394.07 475.52,382.48 474.99,381.24 L 474.03 378.98 L 422.27 379.24 L 370.50 379.50 L 370.20 382.05 C370.04,383.46 371.47,394.01 373.39,405.50 C375.31,416.99 376.66,426.75 376.38,427.19 C376.11,427.64 369.81,428.00 362.40,428.00 C349.41,428.00 348.82,428.09 346.45,430.45 C344.96,431.95 344.00,434.06 344.00,435.85 C344.00,438.56 353.13,466.03 370.98,517.00 C378.11,537.35 380.66,542.12 385.20,543.56 C386.92,544.11 386.86,544.37 384.48,547.21 C381.09,551.24 378.16,557.07 377.19,561.73 L 376.41 565.50 L 351.21 565.77 C326.83,566.03 326.00,566.10 326.00,568.02 C326.00,569.94 326.74,570.00 350.25,570.02 C363.59,570.02 374.96,570.36 375.52,570.77 C376.43,571.43 378.77,578.33 379.29,581.92 C379.41,582.75 376.54,585.06 372.50,587.39 C364.99,591.72 354.57,601.46 351.81,606.73 L 350.12 609.95 L 345.93 608.48 C343.63,607.66 340.20,607.00 338.30,607.00 C333.22,607.00 334.17,610.17 339.65,611.50 C345.10,612.82 345.47,614.37 340.50,615.04 C335.03,615.77 333.55,616.75 335.12,618.64 C336.04,619.75 337.67,619.96 341.92,619.50 C347.95,618.84 347.80,619.48 341.07,623.20 C339.38,624.14 338.00,625.39 338.00,625.98 C338.00,627.61 341.05,628.45 342.88,627.33 C343.77,626.80 346.36,625.32 348.64,624.05 L 352.79 621.75 L 358.98 626.90 C365.83,632.61 383.06,641.38 395.50,645.50 C409.75,650.22 433.07,655.77 451.95,658.94 C480.57,663.75 499.09,665.27 530.26,665.39 C554.52,665.49 557.94,665.69 557.40,667.00 C555.38,671.92 554.93,675.21 556.10,676.62 C557.75,678.61 559.28,676.89 560.88,671.25 ZM 766.57 418.78 C768.09,414.00 767.22,408.97 763.64,401.71 C761.64,397.66 760.00,393.66 760.00,392.81 C760.00,391.97 761.05,389.74 762.32,387.86 C766.08,382.33 763.54,379.67 759.06,384.44 C757.64,385.95 756.57,388.60 756.26,391.42 C755.83,395.23 756.33,397.14 759.37,403.31 C763.12,410.90 763.77,414.68 761.92,418.14 C761.33,419.25 761.10,420.82 761.41,421.62 C762.18,423.64 765.63,421.75 766.57,418.78 ZM 749.81 416.27 C750.03,413.19 749.44,410.89 747.63,407.77 C745.90,404.80 745.32,402.63 745.71,400.66 C746.21,398.12 746.02,397.86 743.88,398.16 C740.30,398.67 740.14,403.85 743.52,409.63 C745.35,412.75 745.98,414.92 745.56,416.63 C744.80,419.66 745.65,421.21 747.84,420.80 C749.01,420.58 749.59,419.24 749.81,416.27 ZM 783.04 414.91 C784.17,412.18 784.05,411.21 782.03,406.66 C779.56,401.08 779.30,399.45 780.46,396.75 C781.06,395.35 780.71,395.00 778.71,395.00 C774.48,395.00 773.80,399.73 777.10,406.20 C778.52,408.97 779.03,411.40 778.68,413.58 C777.81,418.95 780.96,419.92 783.04,414.91 ZM 458.80 289.39 C459.07,287.51 458.49,287.23 453.23,286.75 C446.66,286.16 439.93,283.17 437.57,279.79 C436.70,278.56 436.00,275.62 436.00,273.26 C436.00,269.63 436.63,268.28 440.00,264.62 C442.20,262.23 446.70,258.84 450.00,257.08 C454.36,254.76 456.00,253.32 456.00,251.82 C456.00,249.85 455.64,249.79 447.55,250.47 C441.03,251.01 437.81,250.80 433.44,249.53 C427.44,247.78 426.38,247.95 427.36,250.50 C428.17,252.61 434.07,255.00 438.47,255.00 C442.89,255.00 442.92,256.06 438.60,259.35 C432.18,264.25 429.31,273.84 432.45,279.90 C433.85,282.61 440.33,288.95 441.78,289.04 C442.18,289.07 444.75,289.72 447.50,290.50 C454.44,292.46 458.42,292.07 458.80,289.39 ZM 463.14 236.42 C463.61,236.12 464.00,235.04 464.00,234.02 C464.00,232.32 463.35,232.20 456.62,232.71 C448.26,233.34 441.94,231.72 436.43,227.51 C430.05,222.65 427.41,225.52 433.41,230.79 C436.55,233.54 442.86,236.20 449.00,237.36 C451.83,237.90 461.82,237.23 463.14,236.42 ZM 485.22 217.62 C503.64,205.66 522.05,197.43 541.91,192.28 C551.54,189.78 554.14,189.53 570.50,189.52 C585.01,189.50 589.86,189.86 595.50,191.38 C605.01,193.94 613.43,198.53 619.20,204.30 C623.96,209.05 626.00,209.59 626.00,206.08 C626.00,203.40 617.14,195.60 610.02,192.01 C598.54,186.22 590.52,184.66 572.00,184.64 C558.70,184.62 553.52,185.04 545.31,186.81 C526.43,190.89 508.04,198.50 488.00,210.54 C476.16,217.65 473.62,219.84 475.13,221.66 C475.75,222.40 476.40,223.00 476.59,223.00 C476.78,223.00 480.66,220.58 485.22,217.62 ZM 648.73 216.26 C650.19,215.30 653.66,214.29 656.44,214.01 C660.74,213.58 661.55,213.16 661.82,211.25 C662.10,209.25 661.71,209.00 658.32,209.01 C650.09,209.02 643.35,212.39 644.48,215.93 C645.27,218.44 645.39,218.45 648.73,216.26 ZM 639.88 209.23 C642.24,204.81 636.52,189.79 632.23,189.18 C629.40,188.77 629.43,189.72 632.42,195.12 C633.76,197.53 635.15,201.30 635.51,203.50 C636.83,211.44 637.92,212.88 639.88,209.23 ZM 520.00 661.37 C450.12,659.09 379.06,641.31 359.72,621.26 C354.38,615.74 353.95,611.85 358.00,605.78 C362.07,599.68 377.69,587.97 381.71,588.01 C383.07,588.02 397.97,602.70 397.30,603.37 C396.95,603.72 395.93,604.00 395.02,604.00 C392.34,604.00 389.32,606.68 390.58,607.96 C391.36,608.75 393.63,608.71 398.82,607.82 C405.55,606.67 406.30,606.73 411.24,608.88 C423.28,614.09 436.35,618.38 450.00,621.59 C457.98,623.46 465.51,624.99 466.75,625.00 C468.31,625.00 469.00,625.60 469.00,626.95 C469.00,632.49 474.11,637.00 480.39,637.00 C482.36,637.00 490.14,634.79 497.67,632.08 L 511.37 627.16 L 515.87 629.28 C521.04,631.71 527.07,637.40 531.69,644.19 C534.13,647.78 535.86,649.18 539.06,650.14 C542.76,651.25 543.65,651.17 546.87,649.44 C551.77,646.82 554.96,640.28 555.27,632.25 L 555.50 626.14 L 563.62 625.46 C573.52,624.64 576.67,625.24 584.90,629.57 C588.42,631.42 591.64,632.72 592.06,632.46 C593.68,631.46 591.60,627.91 588.14,625.76 L 584.50 623.50 L 588.00 623.20 C589.92,623.03 598.09,621.79 606.14,620.45 C623.84,617.49 628.43,617.41 635.14,619.96 C637.99,621.04 640.69,621.69 641.16,621.40 C642.99,620.27 641.84,617.77 639.00,616.69 C637.35,616.07 636.00,615.30 636.00,614.98 C636.00,614.66 639.22,613.36 643.15,612.09 C651.86,609.29 663.46,603.39 669.18,598.85 C673.14,595.72 673.88,595.51 680.46,595.64 C684.33,595.72 688.40,595.95 689.50,596.14 C690.92,596.40 691.59,595.88 691.80,594.38 C692.14,592.00 689.89,591.04 683.92,591.01 C681.95,591.01 680.05,590.72 679.71,590.37 C679.36,590.03 680.44,587.76 682.11,585.34 C683.78,582.92 686.28,578.45 687.67,575.41 C690.11,570.07 690.31,569.91 693.35,570.56 C699.19,571.82 707.13,575.18 707.69,576.63 C707.99,577.42 706.96,588.22 705.41,600.63 L 702.57 623.20 L 692.83 628.08 C661.12,644.00 621.16,655.40 584.22,659.07 C574.95,659.99 571.32,660.01 569.42,659.15 C566.10,657.63 564.00,657.70 562.08,659.39 C560.37,660.90 537.90,661.95 520.00,661.37 ZM 507.80 648.81 C508.17,646.86 508.26,646.88 487.00,644.44 C479.02,643.52 468.00,641.93 462.50,640.89 C450.46,638.61 448.00,638.54 448.00,640.44 C448.00,641.23 448.38,642.12 448.85,642.41 C450.03,643.14 470.78,646.70 487.00,648.95 C503.12,651.20 507.36,651.17 507.80,648.81 ZM 609.07 646.58 C645.20,637.42 698.00,617.82 698.00,613.56 C698.00,611.10 694.93,611.70 685.89,615.91 C667.95,624.27 627.03,637.93 602.00,643.92 C595.31,645.52 589.59,647.07 589.30,647.37 C588.55,648.11 589.74,651.00 590.79,651.00 C591.25,651.00 599.48,649.01 609.07,646.58 ZM 425.00 635.22 C425.00,633.78 422.78,632.91 413.25,630.60 C406.79,629.04 396.59,626.01 390.58,623.88 C378.31,619.52 375.69,619.13 376.18,621.75 C376.55,623.71 391.04,629.12 409.00,634.00 C421.69,637.44 425.00,637.70 425.00,635.22 ZM 538.80 644.95 C537.86,644.40 535.20,641.24 532.87,637.93 C526.13,628.32 519.27,624.15 504.24,620.53 C500.25,619.57 496.79,618.47 496.55,618.09 C495.84,616.93 501.72,600.49 505.43,593.27 C510.63,583.16 509.82,583.70 516.45,585.98 C519.65,587.08 526.34,588.69 531.32,589.56 C541.86,591.38 543.50,592.11 545.36,595.78 C547.51,600.01 551.28,628.58 550.51,634.76 C549.44,643.33 544.06,648.01 538.80,644.95 ZM 706.03 644.04 C704.77,643.24 705.29,637.32 709.90,600.31 C715.98,551.40 718.65,532.02 719.39,531.28 C719.67,530.99 721.97,531.07 724.49,531.45 C728.98,532.12 729.06,532.19 728.51,535.32 C727.98,538.38 719.95,590.15 714.53,625.50 C713.10,634.85 711.73,643.06 711.49,643.75 C710.99,645.21 708.13,645.37 706.03,644.04 ZM 831.01 641.75 C830.49,640.51 826.67,617.67 822.53,591.00 C818.39,564.33 814.62,540.17 814.16,537.32 L 813.32 532.14 L 818.22 531.47 C820.92,531.10 823.29,530.96 823.49,531.16 C823.82,531.48 833.33,597.67 837.53,628.78 C838.44,635.54 838.93,641.73 838.63,642.53 C837.69,644.97 832.12,644.39 831.01,641.75 ZM 477.01 631.71 C475.64,631.02 474.37,629.66 474.18,628.69 C473.87,627.10 474.73,626.96 483.17,627.22 C492.09,627.49 492.54,627.40 493.50,625.18 C494.32,623.28 495.03,622.97 497.43,623.44 C503.55,624.65 502.28,625.70 489.50,629.98 C479.09,633.47 480.19,633.32 477.01,631.71 ZM 474.82 621.95 C448.98,618.20 419.60,609.11 404.16,600.09 C381.61,586.92 374.99,568.60 386.70,551.72 C391.26,545.13 392.10,544.97 413.06,546.50 C423.20,547.24 436.30,548.16 442.17,548.54 C452.70,549.22 452.84,549.26 452.67,551.67 C452.51,553.91 453.47,554.48 464.00,558.41 C473.48,561.94 506.47,576.38 507.91,577.63 C508.13,577.82 505.81,582.82 502.76,588.74 C499.70,594.66 495.98,603.33 494.49,608.00 C490.04,621.98 489.52,623.33 488.49,623.57 C487.94,623.69 481.79,622.96 474.82,621.95 ZM 770.86 621.94 C769.48,621.17 769.18,616.79 768.61,588.78 C768.25,571.02 767.69,551.66 767.35,545.75 L 766.74 535.00 L 771.87 535.00 L 777.00 535.00 L 777.00 557.75 C777.00,570.26 776.70,589.64 776.34,600.80 C775.78,618.02 775.43,621.23 774.06,621.97 C773.15,622.46 771.76,622.45 770.86,621.94 ZM 554.58 619.90 C554.33,619.13 553.42,613.60 552.57,607.62 C550.42,592.46 547.25,587.79 538.05,586.22 C533.74,585.49 533.54,585.28 531.32,579.55 C530.06,576.30 529.13,573.53 529.26,573.40 C530.00,572.67 585.81,551.40 592.50,549.30 C603.92,545.72 605.00,545.22 605.00,543.52 C605.00,540.06 595.80,542.51 567.50,553.49 C556.50,557.77 542.78,563.05 537.00,565.24 C531.22,567.42 525.75,570.08 524.82,571.13 C523.88,572.21 520.79,573.48 517.73,574.04 C512.51,575.01 512.02,574.90 504.21,571.04 C491.92,564.98 477.26,558.50 467.90,555.00 C455.02,550.19 454.93,550.15 459.00,550.07 C462.32,550.01 488.02,551.63 521.79,554.04 C533.23,554.85 538.52,554.83 542.79,553.96 C545.93,553.32 560.20,548.18 574.50,542.54 C597.51,533.46 601.07,532.33 605.50,532.65 C634.44,534.77 658.30,538.92 680.25,545.64 L 689.00 548.32 L 689.00 552.05 C689.00,557.94 684.23,572.86 680.23,579.46 C669.44,597.30 651.70,606.89 616.50,613.90 C589.51,619.27 555.48,622.56 554.58,619.90 ZM 722.38 604.50 C722.67,602.30 723.21,598.12 723.59,595.21 C724.33,589.42 725.70,588.89 727.63,593.63 C728.66,596.15 728.57,597.24 727.03,600.56 C726.04,602.73 724.46,605.40 723.54,606.50 C721.93,608.42 721.88,608.35 722.38,604.50 ZM 519.50 582.21 C513.38,580.26 513.19,580.12 515.03,578.96 C517.58,577.35 525.71,577.79 526.39,579.58 C528.19,584.28 527.18,584.66 519.50,582.21 ZM 692.56 557.75 C692.89,553.21 693.84,547.72 694.66,545.54 C695.48,543.36 696.40,538.56 696.71,534.88 C697.52,525.24 697.53,525.24 706.19,527.43 C710.21,528.45 713.79,529.55 714.14,529.89 C714.75,530.47 710.59,562.02 709.55,564.73 C709.21,565.62 706.50,566.00 700.51,566.00 L 691.95 566.00 L 692.56 557.75 ZM 728.38 563.25 C728.87,561.62 733.00,534.96 733.00,533.48 C733.00,532.81 750.57,533.57 758.75,534.59 L 763.00 535.12 L 763.00 550.06 L 763.00 565.00 L 745.43 565.00 C729.17,565.00 727.90,564.87 728.38,563.25 ZM 781.00 550.10 L 781.00 535.20 L 788.00 534.60 C811.09,532.62 808.86,532.56 809.41,535.15 C810.98,542.63 813.85,563.43 813.41,564.15 C813.12,564.62 805.71,565.00 796.94,565.00 L 781.00 565.00 L 781.00 550.10 ZM 524.50 549.89 C512.02,548.85 465.44,545.65 424.00,543.00 C406.67,541.88 390.79,540.51 388.70,539.93 C383.86,538.61 382.12,535.76 377.11,521.00 C374.96,514.67 369.75,499.60 365.53,487.50 C361.31,475.40 355.58,458.82 352.80,450.66 L 347.73 435.82 L 349.75 433.80 L 351.77 431.78 L 423.64 433.90 C463.16,435.06 497.02,436.21 498.87,436.46 C500.73,436.71 503.10,437.69 504.15,438.63 C505.93,440.24 511.45,456.55 532.92,523.62 C536.81,535.78 540.00,546.45 540.00,547.33 C540.00,548.88 536.98,551.15 535.32,550.86 C534.87,550.78 530.00,550.34 524.50,549.89 ZM 447.73 499.73 C452.74,494.72 449.52,482.37 442.44,479.41 C439.61,478.23 439.00,477.44 439.00,474.99 C439.00,472.49 438.60,472.00 436.57,472.00 C434.07,472.00 432.25,474.98 433.51,477.02 C433.86,477.59 432.76,478.54 431.04,479.13 C422.57,482.09 423.30,495.45 432.24,501.06 C436.78,503.91 444.18,503.27 447.73,499.73 ZM 544.00 547.63 C544.00,545.55 544.85,544.82 549.25,543.17 C552.14,542.09 565.36,536.90 578.64,531.65 C606.55,520.60 608.00,520.14 608.00,522.37 C608.00,524.56 605.48,525.72 573.61,538.20 C558.15,544.25 545.16,549.41 544.75,549.66 C544.34,549.91 544.00,549.00 544.00,547.63 ZM 683.00 541.89 C668.87,536.86 644.31,531.90 624.00,529.98 C608.32,528.49 608.26,528.47 610.36,526.15 C612.43,523.86 612.47,519.18 610.44,516.93 C608.98,515.32 609.24,515.16 614.19,514.53 C640.67,511.19 661.04,503.77 673.20,493.06 C678.83,488.10 685.39,478.35 687.62,471.64 C689.60,465.68 690.63,466.82 691.52,475.97 C691.87,479.56 692.37,483.27 692.63,484.20 C692.97,485.41 691.95,486.49 689.15,487.93 C682.15,491.50 681.00,493.89 681.00,504.95 C681.00,514.22 681.12,514.73 683.75,517.20 C685.26,518.61 688.02,520.54 689.88,521.48 L 693.26 523.19 L 692.61 530.34 C691.85,538.73 690.77,543.28 689.45,543.61 C688.93,543.74 686.03,542.96 683.00,541.89 ZM 542.47 538.75 C540.76,534.14 535.00,516.46 535.00,515.80 C535.00,515.36 537.04,515.00 539.54,515.00 C542.77,515.00 544.72,515.60 546.29,517.08 C547.98,518.67 549.38,519.05 552.20,518.69 C554.47,518.39 556.59,518.73 557.70,519.57 C560.23,521.49 563.32,521.32 566.14,519.11 C568.34,517.37 569.87,517.26 583.83,517.75 C592.23,518.05 598.74,518.66 598.30,519.10 C597.02,520.38 545.95,540.00 543.91,540.00 C543.37,540.00 542.73,539.44 542.47,538.75 ZM 737.50 528.50 C716.07,526.01 699.40,521.77 690.44,516.52 C686.76,514.36 686.16,513.52 685.83,510.02 C685.39,505.43 685.70,505.30 690.79,507.89 C706.00,515.63 738.69,519.54 781.44,518.74 C801.82,518.36 810.01,517.80 819.00,516.18 C831.57,513.91 842.43,510.83 848.21,507.89 C850.25,506.85 852.16,506.00 852.46,506.00 C853.21,506.00 853.14,512.47 852.38,514.46 C850.83,518.49 832.85,524.63 814.00,527.58 C799.47,529.85 753.90,530.40 737.50,528.50 ZM 559.99 515.49 C558.31,513.46 559.52,509.27 563.06,504.81 C566.45,500.56 566.75,499.00 564.19,499.00 C561.64,499.00 557.49,503.66 555.15,509.14 C554.06,511.69 552.66,514.09 552.04,514.48 C550.36,515.51 548.00,513.09 548.00,510.34 C548.00,507.51 551.16,500.94 553.43,499.06 C555.71,497.17 555.44,494.00 553.01,494.00 C550.69,494.00 545.66,500.46 543.96,505.63 C542.66,509.57 540.65,509.63 540.19,505.75 C539.55,500.35 546.51,491.29 555.34,486.02 C560.74,482.80 571.92,480.04 582.50,479.33 L 591.50 478.73 L 593.38 482.62 C595.68,487.40 600.00,499.85 600.00,501.73 C600.00,502.48 598.33,503.80 596.28,504.66 C593.09,505.99 591.54,506.03 585.36,504.98 C581.40,504.30 577.04,504.02 575.68,504.37 C574.31,504.71 571.30,507.25 568.98,510.02 C563.81,516.20 561.66,517.51 559.99,515.49 ZM 591.50 513.89 C585.45,513.54 579.04,513.20 577.25,513.13 C573.46,512.98 573.08,511.64 576.25,509.59 C578.22,508.31 579.28,508.31 584.86,509.61 C590.48,510.92 591.80,510.92 596.32,509.59 C599.13,508.77 601.46,508.19 601.51,508.30 C601.56,508.41 602.12,509.72 602.76,511.21 C603.40,512.71 603.60,514.06 603.21,514.23 C602.82,514.39 597.55,514.24 591.50,513.89 ZM 743.00 513.88 C709.02,511.17 686.00,504.31 686.00,496.89 C686.00,494.48 690.40,491.56 697.81,489.06 C705.21,486.57 728.12,482.45 730.18,483.24 C730.97,483.54 732.19,485.68 732.88,487.99 C733.62,490.48 735.89,493.94 738.43,496.48 C742.05,500.10 743.84,501.03 749.81,502.39 C758.41,504.34 771.47,504.45 779.23,502.62 C785.90,501.05 791.48,497.16 793.69,492.53 C795.13,489.50 795.68,489.22 801.13,488.72 C804.56,488.41 808.57,487.27 810.76,485.98 C813.94,484.10 815.40,483.87 820.61,484.40 C834.78,485.85 851.23,491.99 852.61,496.34 C854.82,503.31 830.80,511.30 799.70,513.92 C785.17,515.15 758.59,515.13 743.00,513.88 ZM 529.18 497.30 L 525.19 484.50 L 525.20 466.50 C525.20,441.95 523.31,430.29 519.88,433.72 C519.05,434.55 519.05,437.33 519.88,444.34 C521.20,455.53 521.35,467.00 520.17,467.00 C519.71,467.00 517.89,462.16 516.11,456.25 C510.15,436.41 506.77,432.00 497.52,432.00 C495.49,432.00 493.98,431.64 494.17,431.19 C496.29,426.05 508.21,405.90 510.94,402.84 L 514.50 398.86 L 520.09 401.43 C539.60,410.40 564.73,410.88 589.66,402.74 C601.77,398.79 611.50,392.49 622.85,381.25 C628.55,375.61 633.85,371.00 634.64,371.00 C638.56,371.00 651.39,379.33 659.84,387.37 C680.12,406.66 690.76,437.60 685.55,462.16 C681.68,480.44 669.06,494.17 649.00,501.93 C639.39,505.65 617.68,510.21 611.53,509.81 L 606.79 509.50 L 604.47 500.31 C603.19,495.25 600.31,487.18 598.05,482.38 C595.80,477.57 594.31,473.33 594.73,472.94 C595.15,472.56 601.85,470.15 609.61,467.59 C632.87,459.91 637.47,455.49 637.33,441.00 C637.24,432.21 635.80,427.69 633.25,428.22 C632.18,428.44 631.60,429.34 631.76,430.54 C633.35,442.75 633.24,445.88 631.07,450.36 C628.44,455.78 624.32,458.02 605.77,464.11 C591.12,468.93 587.84,470.55 588.22,472.79 C588.46,474.26 587.22,474.59 579.38,475.14 C554.95,476.86 537.64,488.55 536.01,504.42 C535.15,512.79 533.46,511.03 529.18,497.30 ZM 754.00 498.67 C745.74,497.06 741.73,494.91 739.12,490.70 C735.42,484.71 732.93,471.75 732.30,455.25 C731.98,446.86 731.89,440.01 732.11,440.01 C732.32,440.02 734.97,440.73 738.00,441.59 C746.17,443.93 778.53,444.69 786.50,442.73 C789.80,441.92 793.29,440.93 794.25,440.52 C795.83,439.86 796.00,440.55 796.00,447.64 C796.00,469.77 792.37,488.48 787.05,493.80 C782.07,498.78 766.42,501.09 754.00,498.67 ZM 769.06 481.41 C770.23,479.51 771.00,476.83 770.82,475.27 C770.55,472.97 770.08,472.55 768.00,472.81 C766.62,472.98 763.96,473.08 762.07,473.04 C760.18,473.00 758.30,473.52 757.89,474.18 C756.94,475.71 759.42,481.76 762.21,484.72 C764.64,487.31 765.74,486.78 769.06,481.41 ZM 747.75 478.03 C749.96,474.76 750.72,470.55 749.25,469.67 C748.84,469.42 746.14,469.45 743.25,469.74 C738.29,470.23 738.00,470.41 738.00,473.05 C738.00,476.11 742.56,482.31 744.37,481.71 C744.99,481.51 746.51,479.85 747.75,478.03 ZM 788.71 477.10 C789.97,475.23 791.00,472.68 791.00,471.43 C791.00,469.34 790.57,469.17 785.42,469.21 C778.61,469.28 777.87,470.49 780.87,476.68 C783.44,481.96 785.36,482.07 788.71,477.10 ZM 767.41 461.92 C770.15,458.67 771.58,454.75 770.60,453.16 C770.28,452.64 767.42,452.27 764.26,452.35 C759.04,452.49 758.47,452.72 758.17,454.83 C757.84,457.19 762.26,465.00 763.93,465.00 C764.42,465.00 765.99,463.62 767.41,461.92 ZM 790.04 455.90 C791.46,452.47 789.78,449.44 787.09,450.58 C786.22,450.96 784.04,451.19 782.25,451.10 C779.48,450.96 779.00,451.28 779.00,453.24 C779.00,454.50 780.17,457.25 781.59,459.35 L 784.19 463.17 L 786.51 460.99 C787.79,459.79 789.38,457.50 790.04,455.90 ZM 746.92 458.63 C748.06,456.78 749.00,454.29 749.00,453.10 C749.00,450.64 746.40,449.20 744.81,450.79 C744.07,451.53 743.04,451.52 741.35,450.75 C736.46,448.52 735.66,453.76 740.05,459.34 C742.82,462.86 744.41,462.70 746.92,458.63 ZM 797.39 482.42 C797.73,481.55 798.00,480.65 798.00,480.42 C798.00,480.19 799.32,480.00 800.92,480.00 C806.90,480.00 813.00,471.95 813.00,464.05 C813.00,457.54 810.73,454.19 805.34,452.75 C800.53,451.46 798.74,449.42 801.10,447.90 C801.87,447.41 803.85,447.26 805.50,447.56 C814.76,449.30 818.39,453.76 818.36,463.42 C818.32,475.45 810.84,484.00 800.33,484.00 C797.51,484.00 796.91,483.68 797.39,482.42 ZM 799.60 475.16 C799.31,474.69 799.35,470.42 799.69,465.66 L 800.30 457.00 L 803.13 457.00 C809.60,457.00 810.77,467.38 804.96,473.20 C802.08,476.07 800.52,476.64 799.60,475.16 ZM 738.00 437.34 C737.17,437.07 735.84,436.63 735.03,436.37 C732.29,435.49 735.94,434.21 744.84,432.95 C754.69,431.55 783.47,432.20 789.25,433.96 C797.39,436.43 791.05,438.77 782.35,436.50 C774.63,434.49 753.38,434.49 745.66,436.50 C742.49,437.33 739.81,437.96 739.70,437.92 C739.59,437.88 738.83,437.62 738.00,437.34 ZM 446.50 430.30 C442.65,430.12 426.75,429.59 411.16,429.10 C395.57,428.62 382.43,427.83 381.95,427.35 C381.24,426.64 374.00,387.09 374.00,383.92 C374.00,383.37 393.58,383.00 422.53,383.00 C460.46,383.00 471.16,383.27 471.50,384.25 C472.37,386.72 478.68,429.52 478.29,430.25 C477.90,430.96 461.86,430.98 446.50,430.30 ZM 419.81 424.75 C420.12,423.15 418.95,423.00 406.24,423.00 C398.59,423.00 392.04,423.30 391.68,423.66 C391.31,424.02 391.53,424.93 392.15,425.69 C393.03,426.75 396.25,426.99 406.38,426.78 C417.93,426.53 419.51,426.29 419.81,424.75 ZM 458.42 418.39 C459.29,418.06 460.00,417.16 460.00,416.39 C460.00,415.24 456.14,415.00 438.00,415.00 C419.69,415.00 416.00,415.24 416.00,416.42 C416.00,417.20 416.56,418.06 417.25,418.34 C419.05,419.07 456.53,419.12 458.42,418.39 ZM 408.72 416.33 C409.35,414.46 405.53,413.83 398.02,414.57 C392.97,415.06 391.00,415.65 391.00,416.67 C391.00,417.79 392.74,418.02 399.67,417.79 C405.15,417.61 408.48,417.07 408.72,416.33 ZM 428.33 408.07 C430.80,405.60 427.14,404.95 412.43,405.22 C399.41,405.46 397.48,405.71 397.20,407.18 C396.78,409.36 399.22,409.66 414.88,409.37 C422.04,409.24 427.71,408.69 428.33,408.07 ZM 441.07 399.96 C445.83,397.42 442.16,397.00 415.00,397.00 C391.51,397.00 387.00,397.23 387.00,398.42 C387.00,399.20 387.56,400.06 388.25,400.34 C390.76,401.35 439.12,401.01 441.07,399.96 ZM 384.66 389.43 C385.57,387.06 383.44,385.39 381.53,386.98 C380.35,387.96 380.25,388.59 381.11,389.63 C382.61,391.44 383.92,391.36 384.66,389.43 ZM 392.82 388.67 C393.04,387.54 392.47,387.00 391.07,387.00 C389.93,387.00 389.00,387.60 389.00,388.33 C389.00,391.40 392.24,391.68 392.82,388.67 ZM 400.82 388.67 C401.04,387.54 400.47,387.00 399.07,387.00 C397.93,387.00 397.00,387.60 397.00,388.33 C397.00,391.40 400.24,391.68 400.82,388.67 ZM 540.73 403.03 C520.26,399.30 502.83,387.82 496.05,373.60 C491.55,364.17 491.76,363.41 499.09,362.65 C515.77,360.91 528.24,348.50 529.72,332.19 C530.32,325.49 530.88,325.04 538.66,325.01 C542.80,325.00 542.82,325.02 544.47,330.25 C547.93,341.24 558.79,351.31 570.12,354.03 C580.35,356.48 593.97,353.30 601.01,346.81 C608.43,339.98 613.00,329.75 613.00,320.01 L 613.00 314.33 L 624.25 309.74 C635.28,305.24 635.51,305.20 636.04,307.32 C636.89,310.70 639.54,310.52 641.01,306.99 C643.00,302.18 648.26,298.73 654.37,298.22 C658.94,297.84 660.00,298.13 662.83,300.51 C664.61,302.01 666.73,304.82 667.54,306.74 C669.64,311.77 669.36,320.62 666.92,325.98 C663.09,334.44 658.85,337.21 648.60,337.98 L 641.69 338.50 L 640.04 344.54 C636.95,355.87 626.31,372.97 617.26,381.15 C606.85,390.55 593.71,397.32 578.50,401.12 C569.49,403.37 548.43,404.43 540.73,403.03 ZM 556.56 373.52 C561.19,370.80 566.00,365.66 566.00,363.42 C566.00,360.62 561.55,361.94 558.62,365.60 C553.17,372.44 545.03,373.82 536.93,369.27 C532.92,367.01 531.84,366.76 530.78,367.85 C529.73,368.93 530.11,369.68 532.88,372.01 C539.36,377.48 548.78,378.08 556.56,373.52 ZM 540.50 352.50 C540.50,351.08 539.73,350.41 537.82,350.19 C536.35,350.02 534.59,349.22 533.92,348.40 C532.92,347.20 533.20,346.40 535.46,344.04 C537.38,342.04 538.39,339.74 538.74,336.58 C539.21,332.47 539.05,332.00 537.22,332.00 C535.62,332.00 535.03,332.85 534.52,335.89 C534.15,338.06 532.78,340.79 531.43,342.07 C528.77,344.56 528.17,349.32 530.25,351.39 C534.28,355.40 540.50,356.07 540.50,352.50 ZM 492.53 357.05 C492.12,356.39 492.08,353.51 492.44,350.65 C493.34,343.40 491.51,332.92 486.39,316.09 C483.97,308.16 482.00,301.57 482.00,301.46 C482.00,300.23 489.91,298.60 495.65,298.65 C513.26,298.81 525.76,312.46 524.81,330.50 C524.21,341.94 519.04,349.88 508.79,355.10 C503.85,357.63 493.64,358.85 492.53,357.05 ZM 513.47 339.05 C515.71,334.72 515.40,328.89 512.71,324.90 C510.85,322.14 509.77,321.50 506.99,321.50 C504.33,321.50 503.27,322.06 502.29,324.00 C500.72,327.11 500.64,332.43 502.12,335.32 C505.74,342.33 510.90,344.03 513.47,339.05 ZM 482.50 354.35 C477.43,351.69 471.23,344.96 468.91,339.60 C465.87,332.59 465.87,322.40 468.91,315.38 C471.46,309.51 477.64,302.80 478.41,305.08 C484.84,324.20 487.97,338.14 487.99,347.75 C488.00,356.75 487.72,357.08 482.50,354.35 ZM 573.22 349.92 C563.12,347.97 552.64,339.26 549.58,330.27 C547.13,323.08 547.50,311.59 550.39,305.50 C555.42,294.90 565.47,288.67 577.50,288.69 C586.93,288.70 593.52,291.60 599.83,298.50 C613.72,313.70 609.57,338.37 591.69,346.88 C584.63,350.24 579.37,351.11 573.22,349.92 ZM 574.00 335.00 C578.92,330.08 574.94,316.84 568.34,316.20 C563.82,315.75 562.00,318.10 562.00,324.35 C562.00,334.05 568.86,340.14 574.00,335.00 ZM 434.11 497.60 C429.35,494.97 427.61,488.42 430.56,484.22 C432.76,481.07 439.83,481.09 442.69,484.25 C445.61,487.48 447.20,492.75 445.96,495.08 C443.89,498.94 438.57,500.07 434.11,497.60 Z" fill="rgb(254,254,254)"/>
</g>
</svg>