<svg width="24" height="24" viewBox="0 0 24 24" fill="none" xmlns="http://www.w3.org/2000/svg">
<desc>close</desc>
<path fill-rule="evenodd" clip-rule="evenodd" d="M3.55388 3.55147C4.02247 3.08281 4.78222 3.08281 5.25081 3.55147L20.4486 18.7515C20.9172 19.2201 20.9172 19.98 20.4486 20.4486C19.98 20.9173 19.2203 20.9173 18.7517 20.4486L3.55388 5.24865C3.08528 4.77999 3.08528 4.02013 3.55388 3.55147Z" fill="#B1B7C3"/>
<path fill-rule="evenodd" clip-rule="evenodd" d="M20.4461 3.55147C19.9775 3.08281 19.2178 3.08281 18.7492 3.55147L3.55137 18.7515C3.08277 19.2201 3.08277 19.98 3.55137 20.4486C4.01997 20.9173 4.77971 20.9173 5.2483 20.4486L20.4461 5.24865C20.9147 4.77999 20.9147 4.02013 20.4461 3.55147Z" fill="#B1B7C3"/>
</svg>
