<svg width="18" height="19" viewBox="0 0 18 19" fill="none" xmlns="http://www.w3.org/2000/svg">
<desc>close</desc>
<path fill-rule="evenodd" clip-rule="evenodd" d="M9 18.2383C13.9706 18.2383 18 14.2088 18 9.23828C18 4.26772 13.9706 0.238281 9 0.238281C4.02944 0.238281 0 4.26772 0 9.23828C0 14.2088 4.02944 18.2383 9 18.2383ZM12.5303 5.70806C12.2374 5.41517 11.7626 5.41517 11.4697 5.70806L9.00073 8.177L6.5318 5.70806C6.2389 5.41517 5.76403 5.41517 5.47113 5.70806C5.17824 6.00096 5.17824 6.47583 5.47113 6.76872L7.94007 9.23766L5.46967 11.7081C5.17678 12.001 5.17678 12.4758 5.46967 12.7687C5.76256 13.0616 6.23744 13.0616 6.53033 12.7687L9.00073 10.2983L11.4711 12.7687C11.764 13.0616 12.2389 13.0616 12.5318 12.7687C12.8247 12.4758 12.8247 12.001 12.5318 11.7081L10.0614 9.23766L12.5303 6.76872C12.8232 6.47583 12.8232 6.00096 12.5303 5.70806Z" fill="white"/>
</svg>
